<?xml version="1.0" encoding="UTF-8"?>
<!DOCTYPE svg PUBLIC "-//W3C//DTD SVG 1.1//EN" "http://www.w3.org/Graphics/SVG/1.1/DTD/svg11.dtd">
<svg xmlns="http://www.w3.org/2000/svg" version="1.1" width="313px" height="313px" style="shape-rendering:geometricPrecision; text-rendering:geometricPrecision; image-rendering:optimizeQuality; fill-rule:evenodd; clip-rule:evenodd" xmlns:xlink="http://www.w3.org/1999/xlink">
<g><path style="opacity:1" fill="#060606" d="M 138.5,-0.5 C 149.833,-0.5 161.167,-0.5 172.5,-0.5C 228.291,7.21215 269.291,35.8788 295.5,85.5C 282.102,82.4316 270.435,85.4316 260.5,94.5C 241.935,112.596 228.101,133.93 219,158.5C 212.667,176.167 206.333,193.833 200,211.5C 194.564,225.893 186.064,238.06 174.5,248C 167.829,252.335 160.495,254.502 152.5,254.5C 144.503,252.332 137.503,248.332 131.5,242.5C 125.596,235.039 120.43,227.039 116,218.5C 108.743,200.396 102.076,182.063 96,163.5C 87.0959,137.837 73.2625,115.337 54.5,96C 53.5632,95.3083 52.8966,95.475 52.5,96.5C 50.9892,95.0425 49.9892,93.2092 49.5,91C 44.6127,88.7232 39.6127,86.7232 34.5,85C 28.0212,84.0816 21.6879,84.5816 15.5,86.5C 41.7925,36.8976 82.7925,7.89757 138.5,-0.5 Z"/></g>
<g><path style="opacity:1" fill="#4c1815" d="M 52.5,96.5 C 49.9701,100.782 47.6368,105.116 45.5,109.5C 46.2209,106.183 46.3876,102.849 46,99.5C 44.0186,97.6409 43.0186,95.3076 43,92.5C 41.8904,90.9632 40.3904,90.2965 38.5,90.5C 38.5,91.5 38.5,92.5 38.5,93.5C 36.8333,93.5 35.1667,93.5 33.5,93.5C 33.4208,92.0695 33.7542,90.7362 34.5,89.5C 32.5,89.1667 30.5,88.8333 28.5,88.5C 23.4565,88.9093 18.4565,89.576 13.5,90.5C 14.1667,89.1667 14.8333,87.8333 15.5,86.5C 21.6879,84.5816 28.0212,84.0816 34.5,85C 39.6127,86.7232 44.6127,88.7232 49.5,91C 49.9892,93.2092 50.9892,95.0425 52.5,96.5 Z"/></g>
<g><path style="opacity:1" fill="#531716" d="M 295.5,85.5 C 298.29,89.4156 300.29,93.749 301.5,98.5C 293.723,99.7522 286.223,99.7522 279,98.5C 276.664,101.355 274.831,101.022 273.5,97.5C 269.041,100.248 267.541,104.248 269,109.5C 270.697,114.843 272.197,120.176 273.5,125.5C 274.485,129.634 274.818,133.968 274.5,138.5C 272.076,123.224 267.41,108.558 260.5,94.5C 270.435,85.4316 282.102,82.4316 295.5,85.5 Z"/></g>
<g><path style="opacity:1" fill="#631916" d="M 45.5,109.5 C 44.0087,115.132 42.6753,120.799 41.5,126.5C 40.312,130.552 39.312,134.552 38.5,138.5C 38.1818,133.968 38.5151,129.634 39.5,125.5C 41.324,121.025 41.6574,116.359 40.5,111.5C 38.3455,110.072 36.1788,109.739 34,110.5C 33.474,105.52 31.974,105.187 29.5,109.5C 28.6667,108.5 27.8333,107.5 27,106.5C 24.5991,107.602 22.0991,107.769 19.5,107C 15.492,105.824 11.8254,104.657 8.5,103.5C 9.57939,98.9266 11.2461,94.5933 13.5,90.5C 18.4565,89.576 23.4565,88.9093 28.5,88.5C 30.5,88.8333 32.5,89.1667 34.5,89.5C 33.7542,90.7362 33.4208,92.0695 33.5,93.5C 35.1667,93.5 36.8333,93.5 38.5,93.5C 38.5,92.5 38.5,91.5 38.5,90.5C 40.3904,90.2965 41.8904,90.9632 43,92.5C 43.0186,95.3076 44.0186,97.6409 46,99.5C 46.3876,102.849 46.2209,106.183 45.5,109.5 Z"/></g>
<g><path style="opacity:1" fill="#681816" d="M 301.5,98.5 C 303.148,102.429 304.815,106.429 306.5,110.5C 295.783,111.921 285.116,112.421 274.5,112C 273.533,116.401 273.2,120.901 273.5,125.5C 272.197,120.176 270.697,114.843 269,109.5C 267.541,104.248 269.041,100.248 273.5,97.5C 274.831,101.022 276.664,101.355 279,98.5C 286.223,99.7522 293.723,99.7522 301.5,98.5 Z"/></g>
<g><path style="opacity:1" fill="#fcfcf3" d="M 131.5,242.5 C 130.711,242.783 130.044,243.283 129.5,244C 132.145,244.591 132.811,245.925 131.5,248C 132.029,249.559 132.696,251.059 133.5,252.5C 130.798,253.039 128.631,254.372 127,256.5C 125.354,254.859 124.354,255.193 124,257.5C 121.364,257.455 118.53,257.288 115.5,257C 111.87,256.729 110.87,255.062 112.5,252C 111.333,251.5 110.5,250.667 110,249.5C 109.311,250.357 108.478,251.023 107.5,251.5C 104.532,248.353 101.198,245.686 97.5,243.5C 96.3869,245.031 94.8869,246.031 93,246.5C 86.6099,243.578 81.1099,239.412 76.5,234C 74.9751,232.991 73.3084,232.491 71.5,232.5C 69.5,230.833 67.5,229.167 65.5,227.5C 61.8206,222.129 58.1539,216.796 54.5,211.5C 50.9589,204.414 47.9589,197.08 45.5,189.5C 43.9219,181.24 42.4219,172.906 41,164.5C 40.1405,153.269 40.6405,142.103 42.5,131C 42.4915,129.293 42.1582,127.793 41.5,126.5C 42.6753,120.799 44.0087,115.132 45.5,109.5C 47.6368,105.116 49.9701,100.782 52.5,96.5C 52.8966,95.475 53.5632,95.3083 54.5,96C 73.2625,115.337 87.0959,137.837 96,163.5C 102.076,182.063 108.743,200.396 116,218.5C 120.43,227.039 125.596,235.039 131.5,242.5 Z"/></g>
<g><path style="opacity:1" fill="#fbfbf3" d="M 260.5,94.5 C 267.41,108.558 272.076,123.224 274.5,138.5C 274.5,145.833 274.5,153.167 274.5,160.5C 274.5,161.167 274.5,161.833 274.5,162.5C 272.421,177.414 268.087,191.747 261.5,205.5C 259.123,205.784 256.956,205.784 255,205.5C 252.887,207.271 253.053,208.771 255.5,210C 254.376,212.482 252.71,212.982 250.5,211.5C 249.183,216.693 247.017,221.36 244,225.5C 243.374,223.009 242.541,223.009 241.5,225.5C 240.019,224.52 238.685,223.353 237.5,222C 235.687,221.386 235.353,221.719 236.5,223C 228.363,225.93 226.03,231.263 229.5,239C 228.302,243.234 225.802,245.401 222,245.5C 218.815,249.501 214.982,252.668 210.5,255C 202.049,257.728 193.715,260.728 185.5,264C 175.216,265.204 164.882,265.87 154.5,266C 155.833,266.333 157.167,266.667 158.5,267C 155.672,267.969 153.338,267.303 151.5,265C 155.185,264.086 154.852,263.419 150.5,263C 152.384,262.784 154.051,262.117 155.5,261C 152.456,260.641 152.122,259.974 154.5,259C 152.963,257.89 152.297,256.39 152.5,254.5C 160.495,254.502 167.829,252.335 174.5,248C 186.064,238.06 194.564,225.893 200,211.5C 206.333,193.833 212.667,176.167 219,158.5C 228.101,133.93 241.935,112.596 260.5,94.5 Z"/></g>
<g><path style="opacity:1" fill="#702c2e" d="M 102.5,105.5 C 103.725,106.152 104.392,107.319 104.5,109C 105.031,111.817 105.364,114.65 105.5,117.5C 104.66,115.208 103.66,112.875 102.5,110.5C 101.141,111.624 100.141,112.958 99.5,114.5C 99.5,113.833 99.5,113.167 99.5,112.5C 100.957,110.372 101.957,108.038 102.5,105.5 Z"/></g>
<g><path style="opacity:0.998" fill="#721b18" d="M 8.5,103.5 C 11.8254,104.657 15.492,105.824 19.5,107C 22.0991,107.769 24.5991,107.602 27,106.5C 27.8333,107.5 28.6667,108.5 29.5,109.5C 31.974,105.187 33.474,105.52 34,110.5C 36.1788,109.739 38.3455,110.072 40.5,111.5C 41.6574,116.359 41.324,121.025 39.5,125.5C 39.7662,121.395 39.2662,117.395 38,113.5C 37.6532,115.18 36.6532,116.18 35,116.5C 25.0726,116.063 15.2392,115.063 5.5,113.5C 5.7234,109.838 6.7234,106.505 8.5,103.5 Z"/></g>
<g><path style="opacity:1" fill="#2c0a08" d="M 212.5,131.5 C 215.142,124.316 215.142,117.149 212.5,110C 211.207,109.51 209.873,109.343 208.5,109.5C 207.623,114.801 206.956,120.135 206.5,125.5C 205.007,124.688 204.34,123.355 204.5,121.5C 205.667,116.5 206.833,111.5 208,106.5C 209.613,105.378 210.78,105.878 211.5,108C 212.448,108.483 213.448,108.649 214.5,108.5C 216.488,114.947 216.988,121.614 216,128.5C 215.578,130.426 214.411,131.426 212.5,131.5 Z"/></g>
<g><path style="opacity:1" fill="#801e1c" d="M 306.5,110.5 C 307.01,113.539 307.677,116.539 308.5,119.5C 306.974,120.105 305.974,121.271 305.5,123C 295.326,124.736 285.326,124.903 275.5,123.5C 275.5,129.5 275.5,135.5 275.5,141.5C 275.5,145.167 275.5,148.833 275.5,152.5C 275.806,155.385 275.473,158.052 274.5,160.5C 274.5,153.167 274.5,145.833 274.5,138.5C 274.818,133.968 274.485,129.634 273.5,125.5C 273.2,120.901 273.533,116.401 274.5,112C 285.116,112.421 295.783,111.921 306.5,110.5 Z"/></g>
<g><path style="opacity:0.977" fill="#85211b" d="M 5.5,113.5 C 15.2392,115.063 25.0726,116.063 35,116.5C 36.6532,116.18 37.6532,115.18 38,113.5C 39.2662,117.395 39.7662,121.395 39.5,125.5C 38.5151,129.634 38.1818,133.968 38.5,138.5C 38.5,145.5 38.5,152.5 38.5,159.5C 37.5104,153.69 37.1771,147.69 37.5,141.5C 37.6653,137.818 37.4986,134.152 37,130.5C 36.7837,128.616 36.117,126.949 35,125.5C 32.9316,126.394 30.7649,127.06 28.5,127.5C 19.4902,127.478 10.4902,127.145 1.5,126.5C 2.69452,122.037 4.02785,117.704 5.5,113.5 Z"/></g>
<g><path style="opacity:1" fill="#b12d32" d="M 105.5,117.5 C 105.879,122.837 104.879,127.837 102.5,132.5C 101.817,132.137 101.15,131.804 100.5,131.5C 98.3701,125.836 98.0368,120.17 99.5,114.5C 100.141,112.958 101.141,111.624 102.5,110.5C 103.66,112.875 104.66,115.208 105.5,117.5 Z"/></g>
<g><path style="opacity:1" fill="#b53031" d="M 212.5,131.5 C 211.833,132.167 211.167,132.833 210.5,133.5C 210.011,132.005 209.345,130.671 208.5,129.5C 208.771,127.62 208.104,126.287 206.5,125.5C 206.956,120.135 207.623,114.801 208.5,109.5C 209.873,109.343 211.207,109.51 212.5,110C 215.142,117.149 215.142,124.316 212.5,131.5 Z"/></g>
<g><path style="opacity:0.969" fill="#99231d" d="M 308.5,119.5 C 309.822,124.429 310.822,129.429 311.5,134.5C 304.304,134.281 297.471,134.615 291,135.5C 284.543,131.739 280.21,133.406 278,140.5C 277.329,141.252 276.496,141.586 275.5,141.5C 275.5,135.5 275.5,129.5 275.5,123.5C 285.326,124.903 295.326,124.736 305.5,123C 305.974,121.271 306.974,120.105 308.5,119.5 Z"/></g>
<g><path style="opacity:1" fill="#9e241d" d="M 37.5,141.5 C 36.7356,139.26 35.9023,136.927 35,134.5C 33.53,136.152 31.6967,137.152 29.5,137.5C 23.1943,136.605 16.8609,136.605 10.5,137.5C 6.98436,137.317 3.65102,136.65 0.5,135.5C 0.962858,132.518 1.29619,129.518 1.5,126.5C 10.4902,127.145 19.4902,127.478 28.5,127.5C 30.7649,127.06 32.9316,126.394 35,125.5C 36.117,126.949 36.7837,128.616 37,130.5C 37.4986,134.152 37.6653,137.818 37.5,141.5 Z"/></g>
<g><path style="opacity:1" fill="#ad281d" d="M 311.5,134.5 C 311.232,136.099 311.566,137.432 312.5,138.5C 312.5,140.167 312.5,141.833 312.5,143.5C 303.563,143.316 294.73,143.316 286,143.5C 285.369,142.128 284.702,140.795 284,139.5C 282.441,140.029 280.941,140.696 279.5,141.5C 278.304,145.326 276.971,148.993 275.5,152.5C 275.5,148.833 275.5,145.167 275.5,141.5C 276.496,141.586 277.329,141.252 278,140.5C 280.21,133.406 284.543,131.739 291,135.5C 297.471,134.615 304.304,134.281 311.5,134.5 Z"/></g>
<g><path style="opacity:0.979" fill="#b32a20" d="M 37.5,141.5 C 37.1771,147.69 37.5104,153.69 38.5,159.5C 38.5,159.833 38.5,160.167 38.5,160.5C 38.5,164.833 38.5,169.167 38.5,173.5C 37.6892,169.915 36.3559,166.415 34.5,163C 36.67,157.632 37.0034,152.132 35.5,146.5C 31.4003,146.476 27.4003,145.809 23.5,144.5C 21.026,145.269 18.526,145.936 16,146.5C 10.6857,146.066 5.18572,145.399 -0.5,144.5C -0.5,142.833 -0.5,141.167 -0.5,139.5C 0.434475,138.432 0.767809,137.099 0.5,135.5C 3.65102,136.65 6.98436,137.317 10.5,137.5C 16.8609,136.605 23.1943,136.605 29.5,137.5C 31.6967,137.152 33.53,136.152 35,134.5C 35.9023,136.927 36.7356,139.26 37.5,141.5 Z"/></g>
<g><path style="opacity:1" fill="#3d080b" d="M 206.5,125.5 C 208.104,126.287 208.771,127.62 208.5,129.5C 208.3,136.522 204.633,139.856 197.5,139.5C 196.547,142.43 194.88,144.763 192.5,146.5C 194.232,143.533 195.565,140.366 196.5,137C 204.549,137.444 207.882,133.611 206.5,125.5 Z"/></g>
<g><path style="opacity:1" fill="#fce5d5" d="M 41.5,126.5 C 42.1582,127.793 42.4915,129.293 42.5,131C 40.6405,142.103 40.1405,153.269 41,164.5C 42.4219,172.906 43.9219,181.24 45.5,189.5C 45.1667,189.5 44.8333,189.5 44.5,189.5C 41.5186,179.918 39.5186,170.251 38.5,160.5C 38.5,160.167 38.5,159.833 38.5,159.5C 38.5,152.5 38.5,145.5 38.5,138.5C 39.312,134.552 40.312,130.552 41.5,126.5 Z"/></g>
<g><path style="opacity:1" fill="#9f313b" d="M 208.5,129.5 C 209.345,130.671 210.011,132.005 210.5,133.5C 210.649,134.552 210.483,135.552 210,136.5C 206.934,139.396 204.101,142.396 201.5,145.5C 198.607,147.114 195.607,148.447 192.5,149.5C 192.5,148.5 192.5,147.5 192.5,146.5C 194.88,144.763 196.547,142.43 197.5,139.5C 204.633,139.856 208.3,136.522 208.5,129.5 Z"/></g>
<g><path style="opacity:1" fill="#130506" d="M 102.5,105.5 C 102.735,104.903 103.235,104.57 104,104.5C 105.783,105.953 107.783,106.953 110,107.5C 111.226,107.355 112.393,107.022 113.5,106.5C 114.386,107.325 114.719,108.325 114.5,109.5C 113.167,109.5 111.833,109.5 110.5,109.5C 109.932,114.782 109.932,120.615 110.5,127C 110.167,127.833 109.833,128.667 109.5,129.5C 108.264,128.754 106.93,128.421 105.5,128.5C 105.5,129.5 105.5,130.5 105.5,131.5C 106.5,131.5 107.5,131.5 108.5,131.5C 108.529,134.656 110.196,136.322 113.5,136.5C 114.192,135.975 114.692,135.308 115,134.5C 116.113,135.711 117.28,135.711 118.5,134.5C 119.624,133.086 120.624,131.586 121.5,130C 122.5,129.333 123.5,129.333 124.5,130C 124.616,131.268 124.949,132.602 125.5,134C 124.241,134.923 122.908,135.757 121.5,136.5C 119.776,140.612 121.11,142.112 125.5,141C 126.833,140.333 126.833,139.667 125.5,139C 126.931,138.535 128.097,137.701 129,136.5C 132.495,139.832 131.661,141.832 126.5,142.5C 127.655,143.95 129.155,144.95 131,145.5C 131.49,146.793 131.657,148.127 131.5,149.5C 133.833,149.5 136.167,149.5 138.5,149.5C 138.5,152.167 138.5,154.833 138.5,157.5C 133.819,157.669 129.152,158.002 124.5,158.5C 124.5,157.5 124.5,156.5 124.5,155.5C 116.683,153.707 110.016,149.874 104.5,144C 103.552,143.517 102.552,143.351 101.5,143.5C 101.663,140.314 100.663,137.647 98.5,135.5C 97.3354,128.189 97.1687,120.856 98,113.5C 98.3826,112.944 98.8826,112.611 99.5,112.5C 99.5,113.167 99.5,113.833 99.5,114.5C 98.0368,120.17 98.3701,125.836 100.5,131.5C 105.697,141.292 113.364,148.625 123.5,153.5C 123.833,153 124.167,152.5 124.5,152C 121.909,146.822 118.575,142.156 114.5,138C 110.471,138.123 107.304,136.623 105,133.5C 104.478,129.478 104.978,125.645 106.5,122C 106.492,120.293 106.158,118.793 105.5,117.5C 105.364,114.65 105.031,111.817 104.5,109C 104.392,107.319 103.725,106.152 102.5,105.5 Z"/></g>
<g><path style="opacity:1" fill="#86312d" d="M 105.5,117.5 C 106.158,118.793 106.492,120.293 106.5,122C 104.978,125.645 104.478,129.478 105,133.5C 107.304,136.623 110.471,138.123 114.5,138C 118.575,142.156 121.909,146.822 124.5,152C 124.167,152.5 123.833,153 123.5,153.5C 113.364,148.625 105.697,141.292 100.5,131.5C 101.15,131.804 101.817,132.137 102.5,132.5C 104.879,127.837 105.879,122.837 105.5,117.5 Z"/></g>
<g><path style="opacity:0.991" fill="#cf2e22" d="M 312.5,143.5 C 312.5,153.5 312.5,163.5 312.5,173.5C 302.104,239.449 265.438,283.615 202.5,306C 192.876,308.993 183.209,311.16 173.5,312.5C 161.833,312.5 150.167,312.5 138.5,312.5C 74.1992,302.087 30.3659,266.42 7,205.5C 3.8349,194.848 1.3349,184.181 -0.5,173.5C -0.5,163.833 -0.5,154.167 -0.5,144.5C 5.18572,145.399 10.6857,146.066 16,146.5C 18.526,145.936 21.026,145.269 23.5,144.5C 27.4003,145.809 31.4003,146.476 35.5,146.5C 37.0034,152.132 36.67,157.632 34.5,163C 36.3559,166.415 37.6892,169.915 38.5,173.5C 37.7919,180.047 39.7919,185.38 44.5,189.5C 44.6564,194.486 45.9898,199.153 48.5,203.5C 49.6138,206.873 51.6138,209.54 54.5,211.5C 55.5787,216.142 57.4121,220.476 60,224.5C 61.5059,226.174 63.3393,227.174 65.5,227.5C 65.4457,230.967 66.9457,233.634 70,235.5C 70.9961,239.474 71.8294,243.474 72.5,247.5C 74.0064,248.747 75.5064,248.747 77,247.5C 78.3513,249.019 79.8513,250.352 81.5,251.5C 82.2811,250.271 82.7811,248.938 83,247.5C 84.9251,249.213 87.0918,250.547 89.5,251.5C 91.0936,254.061 93.0936,256.228 95.5,258C 123.521,270.663 152.854,273.996 183.5,268C 184.056,267.617 184.389,267.117 184.5,266.5C 193.039,264.329 201.706,262.329 210.5,260.5C 215.973,256.129 221.307,251.795 226.5,247.5C 230.332,247.373 232.999,245.54 234.5,242C 235.5,241.667 236.5,241.333 237.5,241C 240.698,236.974 244.032,233.141 247.5,229.5C 252.439,227.655 254.939,223.988 255,218.5C 257.38,215.076 260.213,212.076 263.5,209.5C 264.246,208.264 264.579,206.93 264.5,205.5C 265.5,205.5 266.5,205.5 267.5,205.5C 269.458,200.457 270.458,195.124 270.5,189.5C 272.862,180.681 274.196,171.681 274.5,162.5C 274.5,161.833 274.5,161.167 274.5,160.5C 275.473,158.052 275.806,155.385 275.5,152.5C 276.971,148.993 278.304,145.326 279.5,141.5C 280.941,140.696 282.441,140.029 284,139.5C 284.702,140.795 285.369,142.128 286,143.5C 294.73,143.316 303.563,143.316 312.5,143.5 Z"/></g>
<g><path style="opacity:1" fill="#64262a" d="M 201.5,145.5 C 200.284,147.451 198.618,148.951 196.5,150C 193.461,150.353 190.795,151.52 188.5,153.5C 187.592,152.21 187.759,150.877 189,149.5C 190.359,148.635 191.526,147.635 192.5,146.5C 192.5,147.5 192.5,148.5 192.5,149.5C 195.607,148.447 198.607,147.114 201.5,145.5 Z"/></g>
<g><path style="opacity:1" fill="#a94a45" d="M 274.5,162.5 C 274.196,171.681 272.862,180.681 270.5,189.5C 267.607,195.628 264.774,201.961 262,208.5C 260.961,209.71 259.794,210.71 258.5,211.5C 259.471,209.517 260.471,207.517 261.5,205.5C 268.087,191.747 272.421,177.414 274.5,162.5 Z"/></g>
<g><path style="opacity:1" fill="#b04837" d="M 38.5,160.5 C 39.5186,170.251 41.5186,179.918 44.5,189.5C 39.7919,185.38 37.7919,180.047 38.5,173.5C 38.5,169.167 38.5,164.833 38.5,160.5 Z"/></g>
<g><path style="opacity:1" fill="#b84d41" d="M 44.5,189.5 C 44.8333,189.5 45.1667,189.5 45.5,189.5C 47.9589,197.08 50.9589,204.414 54.5,211.5C 51.6138,209.54 49.6138,206.873 48.5,203.5C 45.9898,199.153 44.6564,194.486 44.5,189.5 Z"/></g>
<g><path style="opacity:1" fill="#ba3936" d="M 270.5,189.5 C 270.458,195.124 269.458,200.457 267.5,205.5C 266.5,205.5 265.5,205.5 264.5,205.5C 264.579,206.93 264.246,208.264 263.5,209.5C 260.213,212.076 257.38,215.076 255,218.5C 254.939,223.988 252.439,227.655 247.5,229.5C 249.705,227.637 251.039,225.303 251.5,222.5C 253.446,218.561 255.779,214.894 258.5,211.5C 259.794,210.71 260.961,209.71 262,208.5C 264.774,201.961 267.607,195.628 270.5,189.5 Z"/></g>
<g><path style="opacity:1" fill="#b24132" d="M 54.5,211.5 C 58.1539,216.796 61.8206,222.129 65.5,227.5C 63.3393,227.174 61.5059,226.174 60,224.5C 57.4121,220.476 55.5787,216.142 54.5,211.5 Z"/></g>
<g><path style="opacity:1" fill="#a94441" d="M 251.5,222.5 C 251.039,225.303 249.705,227.637 247.5,229.5C 244.032,233.141 240.698,236.974 237.5,241C 236.5,241.333 235.5,241.667 234.5,242C 232.999,245.54 230.332,247.373 226.5,247.5C 235.119,239.548 243.452,231.215 251.5,222.5 Z"/></g>
<g><path style="opacity:1" fill="#bb3b30" d="M 65.5,227.5 C 67.5,229.167 69.5,230.833 71.5,232.5C 74.9629,236.464 78.6295,240.298 82.5,244C 86.7424,246.61 90.7424,249.443 94.5,252.5C 99.4903,257.824 105.824,260.824 113.5,261.5C 136.623,270.13 160.29,271.797 184.5,266.5C 184.389,267.117 184.056,267.617 183.5,268C 152.854,273.996 123.521,270.663 95.5,258C 93.0936,256.228 91.0936,254.061 89.5,251.5C 87.0918,250.547 84.9251,249.213 83,247.5C 82.7811,248.938 82.2811,250.271 81.5,251.5C 79.8513,250.352 78.3513,249.019 77,247.5C 75.5064,248.747 74.0064,248.747 72.5,247.5C 71.8294,243.474 70.9961,239.474 70,235.5C 66.9457,233.634 65.4457,230.967 65.5,227.5 Z"/></g>
<g><path style="opacity:1" fill="#fbf4e9" d="M 261.5,205.5 C 260.471,207.517 259.471,209.517 258.5,211.5C 255.779,214.894 253.446,218.561 251.5,222.5C 243.452,231.215 235.119,239.548 226.5,247.5C 218.887,251.642 211.221,255.809 203.5,260C 197.032,262.1 190.698,264.266 184.5,266.5C 160.29,271.797 136.623,270.13 113.5,261.5C 107.084,258.793 100.751,255.793 94.5,252.5C 90.7424,249.443 86.7424,246.61 82.5,244C 78.6295,240.298 74.9629,236.464 71.5,232.5C 73.3084,232.491 74.9751,232.991 76.5,234C 81.1099,239.412 86.6099,243.578 93,246.5C 94.8869,246.031 96.3869,245.031 97.5,243.5C 101.198,245.686 104.532,248.353 107.5,251.5C 108.478,251.023 109.311,250.357 110,249.5C 110.5,250.667 111.333,251.5 112.5,252C 110.87,255.062 111.87,256.729 115.5,257C 118.53,257.288 121.364,257.455 124,257.5C 124.354,255.193 125.354,254.859 127,256.5C 128.631,254.372 130.798,253.039 133.5,252.5C 132.696,251.059 132.029,249.559 131.5,248C 132.811,245.925 132.145,244.591 129.5,244C 130.044,243.283 130.711,242.783 131.5,242.5C 137.503,248.332 144.503,252.332 152.5,254.5C 152.297,256.39 152.963,257.89 154.5,259C 152.122,259.974 152.456,260.641 155.5,261C 154.051,262.117 152.384,262.784 150.5,263C 154.852,263.419 155.185,264.086 151.5,265C 153.338,267.303 155.672,267.969 158.5,267C 157.167,266.667 155.833,266.333 154.5,266C 164.882,265.87 175.216,265.204 185.5,264C 193.715,260.728 202.049,257.728 210.5,255C 214.982,252.668 218.815,249.501 222,245.5C 225.802,245.401 228.302,243.234 229.5,239C 226.03,231.263 228.363,225.93 236.5,223C 235.353,221.719 235.687,221.386 237.5,222C 238.685,223.353 240.019,224.52 241.5,225.5C 242.541,223.009 243.374,223.009 244,225.5C 247.017,221.36 249.183,216.693 250.5,211.5C 252.71,212.982 254.376,212.482 255.5,210C 253.053,208.771 252.887,207.271 255,205.5C 256.956,205.784 259.123,205.784 261.5,205.5 Z"/></g>
<g><path style="opacity:1" fill="#b04741" d="M 94.5,252.5 C 100.751,255.793 107.084,258.793 113.5,261.5C 105.824,260.824 99.4903,257.824 94.5,252.5 Z"/></g>
<g><path style="opacity:1" fill="#af4243" d="M 226.5,247.5 C 221.307,251.795 215.973,256.129 210.5,260.5C 201.706,262.329 193.039,264.329 184.5,266.5C 190.698,264.266 197.032,262.1 203.5,260C 211.221,255.809 218.887,251.642 226.5,247.5 Z"/></g>
</svg>
