<?xml version="1.0" standalone="no"?>
<!DOCTYPE svg PUBLIC "-//W3C//DTD SVG 20010904//EN"
 "http://www.w3.org/TR/2001/REC-SVG-20010904/DTD/svg10.dtd">
<svg version="1.0" xmlns="http://www.w3.org/2000/svg"
 width="313.000000pt" height="313.000000pt" viewBox="0 0 313.000000 313.000000"
 preserveAspectRatio="xMidYMid meet">

<g transform="translate(0.000000,313.000000) scale(0.100000,-0.100000)"
fill="#000000" stroke="none">
<path d="M1358 3115 c-588 -80 -1081 -486 -1271 -1045 -194 -570 -45 -1196
384 -1617 238 -233 521 -376 859 -434 97 -17 362 -17 465 0 463 73 861 338
1105 736 245 399 295 909 131 1352 -252 683 -954 1106 -1673 1008z m1292
-1030 c136 -311 132 -673 -10 -973 -160 -337 -437 -561 -806 -654 -76 -19
-115 -22 -269 -22 -164 1 -189 3 -280 28 -216 59 -397 162 -548 313 -314 312
-427 775 -290 1193 29 88 80 200 92 200 15 0 124 -123 185 -209 33 -46 89
-142 126 -215 63 -124 92 -199 225 -571 128 -361 247 -525 417 -576 61 -19 77
-20 125 -10 145 29 277 169 378 400 20 46 67 172 105 280 119 346 184 491 294
656 60 89 197 255 211 255 1 0 22 -43 45 -95z"/>
</g>
</svg>
