<?xml version="1.0" standalone="no"?>
<!DOCTYPE svg PUBLIC "-//W3C//DTD SVG 20010904//EN"
 "http://www.w3.org/TR/2001/REC-SVG-20010904/DTD/svg10.dtd">
<svg version="1.0" xmlns="http://www.w3.org/2000/svg"
 width="1024.000000pt" height="1024.000000pt" viewBox="0 0 1024.000000 1024.000000"
 preserveAspectRatio="xMidYMid meet">

<g transform="translate(0.000000,1024.000000) scale(0.100000,-0.100000)"
fill="#000000" stroke="none">
<path d="M4790 8594 c-225 -28 -295 -39 -415 -65 -740 -162 -1426 -585 -1929
-1189 -464 -555 -713 -1148 -787 -1865 -16 -157 -16 -526 0 -690 60 -626 250
-1187 559 -1648 567 -844 1452 -1392 2442 -1513 178 -22 496 -29 680 -15 998
74 1909 576 2518 1389 371 497 575 1041 653 1752 19 168 16 603 -5 765 -49
381 -122 661 -258 980 -321 756 -900 1364 -1659 1746 -234 117 -584 237 -844
288 -230 46 -402 63 -665 66 -140 2 -271 1 -290 -1z m506 -34 c710 -57 1365
-315 1919 -756 136 -109 414 -385 521 -519 357 -445 599 -972 703 -1530 40
-217 53 -370 54 -635 2 -1152 -458 -2108 -1343 -2791 -424 -328 -974 -566
-1509 -653 -703 -116 -1413 -12 -2046 299 -366 179 -629 368 -920 659 -380
381 -639 796 -808 1296 -57 168 -124 445 -146 605 -6 44 -15 112 -20 150 -71
520 -2 1146 180 1634 126 335 298 636 531 929 131 164 429 463 584 585 593
468 1310 731 2010 736 89 0 219 -4 290 -9z"/>
<path d="M4790 8139 c-101 -9 -187 -24 -295 -51 -148 -36 -370 -122 -359 -139
3 -5 -1 -7 -8 -4 -16 6 -133 -58 -133 -73 0 -6 -4 -14 -9 -19 -5 -5 -6 -2 -1
6 5 9 3 12 -6 9 -8 -3 -13 -10 -12 -16 1 -5 -5 -9 -15 -8 -9 0 -16 -4 -15 -11
1 -6 -5 -17 -15 -25 -15 -12 -16 -11 -3 5 22 28 3 20 -45 -19 -24 -20 -41 -41
-37 -47 4 -6 1 -7 -7 -2 -8 5 -41 -21 -96 -76 -75 -75 -105 -113 -72 -93 7 4
8 3 4 -5 -4 -6 -11 -9 -16 -6 -13 8 -73 -73 -64 -86 4 -7 3 -9 -4 -5 -14 8
-75 -80 -66 -96 4 -7 3 -8 -4 -4 -6 3 -16 -2 -21 -13 -14 -26 -14 -34 1 -25 7
4 8 3 4 -5 -4 -6 -11 -9 -16 -6 -5 3 -17 -9 -26 -27 -9 -18 -39 -66 -66 -106
-27 -40 -46 -78 -42 -84 4 -7 3 -8 -4 -4 -12 7 -64 -63 -56 -76 3 -5 2 -7 -3
-6 -15 5 -85 -80 -77 -93 4 -7 3 -9 -3 -6 -11 7 -106 -87 -137 -135 -10 -15
-14 -33 -10 -39 4 -7 3 -9 -3 -6 -12 8 -33 -43 -33 -78 0 -65 84 -203 116
-191 8 3 13 0 11 -6 -3 -17 110 -75 179 -92 162 -40 218 -31 704 113 135 40
306 91 380 113 377 111 508 178 698 361 87 85 118 108 167 126 276 105 626
-79 686 -361 23 -106 -9 -273 -72 -375 -93 -149 -263 -269 -463 -323 -164 -45
-230 -50 -771 -60 -526 -9 -677 -17 -885 -46 -154 -22 -387 -81 -540 -138
-137 -51 -305 -135 -305 -153 0 -6 -4 -15 -9 -20 -6 -5 -6 -2 -1 6 13 22 -15
9 -100 -49 -42 -28 -73 -55 -70 -59 2 -5 -3 -15 -13 -22 -15 -13 -16 -12 -3 4
8 10 9 17 3 17 -14 0 -262 -239 -262 -252 0 -6 8 -4 17 3 9 8 4 -3 -11 -23
-33 -44 -44 -50 -19 -10 15 23 15 25 1 14 -57 -46 -203 -313 -251 -462 -27
-82 -44 -160 -28 -125 14 29 13 19 -8 -107 -10 -62 -19 -168 -20 -235 l-1
-123 25 0 c15 0 24 -4 20 -10 -3 -5 -12 -7 -19 -4 -8 3 -16 -3 -19 -15 -6 -23
0 -31 22 -30 12 0 11 3 -4 10 -15 7 -7 8 28 5 26 -2 50 0 53 5 3 5 10 9 17 9
6 0 1 -7 -11 -16 -40 -28 -16 -51 28 -27 24 14 24 14 -10 8 -23 -5 -32 -4 -25
3 6 5 28 12 50 15 22 3 34 3 28 0 -7 -2 -13 -9 -13 -14 0 -6 8 -6 19 1 11 5
26 10 33 9 7 0 3 -4 -10 -10 -13 -5 -20 -13 -17 -19 3 -5 -1 -10 -9 -10 -9 0
-16 -3 -16 -8 0 -4 19 -6 41 -4 29 3 40 1 35 -7 -5 -7 -1 -9 9 -4 13 5 14 7 3
14 -7 5 -21 9 -30 9 -22 0 -24 16 -3 24 22 8 19 26 -4 26 -11 0 -22 4 -26 9
-3 6 6 7 22 2 30 -8 53 -5 53 8 0 5 -12 7 -27 4 l-28 -3 25 10 c13 6 35 8 48
5 23 -6 24 -7 7 -25 -10 -11 -21 -17 -26 -15 -4 3 -10 1 -13 -4 -3 -4 2 -8 12
-7 9 0 17 -3 17 -9 0 -5 -5 -9 -12 -7 -7 2 -13 -2 -13 -8 0 -5 6 -10 13 -10
16 1 55 30 39 30 -7 0 -4 8 6 18 19 19 102 25 102 7 0 -5 -20 -8 -44 -6 -24 1
-47 -2 -50 -8 -5 -7 8 -9 38 -6 43 4 44 4 40 -20 -4 -22 -2 -24 18 -16 13 4
28 6 35 4 16 -6 27 17 14 30 -8 8 -11 8 -11 -1 0 -7 -12 -12 -26 -12 -14 0
-23 4 -19 10 4 6 10 8 15 5 5 -3 11 -1 15 5 12 19 43 11 48 -12 3 -13 4 -6 4
15 -1 29 -5 37 -20 37 -10 0 -15 5 -12 10 3 6 1 10 -4 10 -6 0 -11 -4 -11 -9
0 -9 -67 -20 -76 -12 -10 11 91 29 109 20 9 -6 22 -7 27 -4 5 3 18 1 27 -4 16
-9 16 -10 -4 -11 -29 0 -29 -17 -1 -39 24 -20 67 -16 64 5 -3 22 -15 28 -22
10 -3 -9 -13 -16 -21 -16 -8 0 -12 4 -8 9 3 5 0 11 -7 14 -7 2 -2 2 10 0 16
-3 21 0 17 8 -5 8 1 9 23 5 20 -5 34 -2 44 8 10 9 20 11 29 5 12 -7 12 -9 -1
-9 -18 0 -54 -39 -46 -48 4 -3 11 -1 17 5 11 11 59 6 59 -7 0 -4 -12 -5 -26
-2 -16 3 -24 1 -21 -4 3 -6 -9 -8 -28 -6 -18 2 -35 0 -38 -5 -4 -6 23 -10 64
-10 39 -1 73 -4 76 -7 4 -3 -2 -6 -13 -7 -51 -3 -75 -7 -82 -13 -4 -5 0 -7 8
-6 30 5 51 0 45 -10 -4 -6 -16 -8 -28 -5 -17 5 -19 4 -7 -4 8 -5 27 -7 44 -4
21 4 27 3 22 -6 -4 -6 -11 -9 -16 -6 -5 3 -12 0 -16 -6 -5 -9 1 -10 20 -5 15
4 26 2 26 -4 0 -5 -13 -10 -29 -10 -17 0 -31 -6 -35 -15 -4 -13 -2 -14 14 -5
11 6 25 8 30 5 5 -3 11 -1 15 5 4 6 10 8 15 5 4 -3 6 16 5 43 l-4 47 10 -40
c5 -22 14 -53 19 -69 6 -20 6 -34 -1 -42 -7 -8 -6 -14 2 -20 8 -4 9 -3 5 4 -4
7 -3 12 2 12 4 0 19 -25 31 -55 70 -169 236 -343 414 -436 43 -22 80 -39 82
-37 2 2 -34 23 -79 46 -214 110 -385 323 -447 557 -42 156 -36 394 12 539 55
165 145 301 291 442 195 187 438 313 773 399 162 42 271 58 605 90 613 59 848
117 1116 277 251 149 448 364 544 594 53 129 74 233 73 379 0 165 -19 250 -83
380 -27 55 -42 91 -34 80 32 -42 85 -157 105 -232 14 -47 25 -126 29 -198 4
-66 8 -104 8 -84 l2 36 57 6 c31 3 65 1 75 -4 10 -6 27 -7 38 -4 11 3 28 2 37
-4 17 -10 17 -10 -1 -11 -11 0 -17 -3 -14 -6 3 -3 21 -1 39 5 24 6 28 9 12 10
-12 1 -28 8 -36 16 -8 8 -17 11 -21 8 -3 -4 -6 -1 -6 5 0 18 28 14 39 -5 10
-16 12 -17 24 -2 16 21 63 37 52 18 -6 -11 -5 -12 6 -1 7 6 28 12 46 12 26 0
31 -3 26 -17 -4 -11 -8 -12 -11 -5 -5 16 -31 15 -38 -1 -2 -7 -16 -14 -30 -15
-14 -1 -23 2 -19 8 3 6 2 10 -4 10 -5 0 -13 -4 -16 -10 -8 -12 38 -24 70 -18
26 5 35 -6 13 -15 -7 -3 1 -6 17 -6 23 -1 26 2 15 9 -13 8 -13 11 3 27 11 12
17 13 17 4 0 -9 4 -8 16 3 8 9 24 16 34 16 10 0 21 4 24 8 6 11 -34 9 -51 -1
-6 -4 -14 -3 -18 3 -3 5 -5 10 -3 11 2 0 14 2 28 5 41 7 52 13 44 26 -5 7 -2
9 8 5 9 -3 25 1 36 8 26 19 21 64 -24 179 -19 50 -37 100 -40 111 -6 27 34
-55 63 -130 13 -33 21 -46 18 -30 -10 45 -71 182 -112 250 -53 86 -112 165
-122 162 -5 -1 -28 21 -51 48 l-42 50 46 -48 c25 -27 46 -45 46 -40 0 14 -210
233 -223 233 -6 0 7 -19 28 -42 l40 -43 -42 39 c-23 22 -40 43 -38 47 8 11
-93 91 -105 84 -13 -8 -42 14 -35 25 3 5 -8 18 -24 29 -36 26 -48 27 -30 4 13
-16 12 -17 -3 -4 -10 7 -16 17 -13 21 7 12 -133 92 -147 84 -6 -4 -8 -3 -4 4
9 15 -132 84 -158 76 -15 -4 -17 -3 -8 4 26 18 -266 127 -315 117 -22 -4 -23
-3 -8 3 41 18 -263 77 -475 92 -150 11 -178 11 -300 -1z m747 -85 c-3 -3 -12
-4 -19 -1 -8 3 -5 6 6 6 11 1 17 -2 13 -5z m-294 -331 c-7 -2 -19 -2 -25 0 -7
3 -2 5 12 5 14 0 19 -2 13 -5z m144 -19 c-3 -3 -12 -4 -19 -1 -8 3 -5 6 6 6
11 1 17 -2 13 -5z m40 -10 c-3 -3 -12 -4 -19 -1 -8 3 -5 6 6 6 11 1 17 -2 13
-5z m50 -10 c-3 -3 -12 -4 -19 -1 -8 3 -5 6 6 6 11 1 17 -2 13 -5z m143 -44
c8 -5 11 -10 5 -10 -5 0 -17 5 -25 10 -8 5 -10 10 -5 10 6 0 17 -5 25 -10z
m80 -30 c8 -5 11 -10 5 -10 -5 0 -17 5 -25 10 -8 5 -10 10 -5 10 6 0 17 -5 25
-10z m70 -30 c8 -5 11 -10 5 -10 -5 0 -17 5 -25 10 -8 5 -10 10 -5 10 6 0 17
-5 25 -10z m100 -56 c0 -2 -9 0 -20 6 -11 6 -20 13 -20 16 0 2 9 0 20 -6 11
-6 20 -13 20 -16z m86 -55 c3 -6 -5 -3 -20 6 -14 10 -26 19 -26 22 0 7 39 -17
46 -28z m595 4 c13 -17 13 -17 -6 -3 -11 8 -22 16 -24 17 -2 2 0 3 6 3 6 0 17
-8 24 -17z m-560 -30 c13 -16 12 -17 -3 -4 -10 7 -18 15 -18 17 0 8 8 3 21
-13z m-1273 -10 c-8 -10 -35 -42 -62 -72 -26 -30 -45 -60 -42 -68 3 -8 1 -11
-4 -8 -5 3 -30 -36 -56 -87 -60 -119 -96 -172 -139 -201 -19 -13 -33 -26 -31
-28 13 -13 -82 -5 -130 11 -74 26 -129 25 -201 -1 -65 -25 -157 -77 -203 -115
-53 -45 -44 -19 21 56 213 248 439 420 637 485 43 14 160 38 216 44 5 1 3 -7
-6 -16z m1367 -73 c38 -38 67 -70 64 -70 -2 0 -36 32 -74 70 -38 39 -67 70
-64 70 2 0 36 -31 74 -70z m643 -113 c51 -75 76 -117 68 -117 -2 0 -23 30 -47
68 -23 37 -56 85 -73 107 -17 22 -23 34 -14 27 9 -7 38 -45 66 -85z m-537 -9
c15 -28 5 -21 -21 15 -15 20 -17 27 -6 18 9 -8 22 -23 27 -33z m572 -375 c-7
-2 -19 -2 -25 0 -7 3 -2 5 12 5 14 0 19 -2 13 -5z m65 -20 c-10 -2 -26 -2 -35
0 -10 3 -2 5 17 5 19 0 27 -2 18 -5z m-383 -54 c-4 -5 -12 -9 -18 -8 -9 0 -8
2 1 6 6 2 9 10 6 15 -4 7 -2 8 5 4 6 -4 9 -12 6 -17z m305 1 c-6 -11 -13 -20
-16 -20 -3 0 -2 5 2 11 3 6 0 15 -7 20 -10 6 -8 9 9 9 20 0 21 -3 12 -20z
m-240 6 c0 -2 -6 -9 -14 -15 -11 -9 -16 -9 -22 0 -4 8 -3 9 4 5 7 -4 12 -2 12
3 0 6 5 11 10 11 6 0 10 -2 10 -4z m70 -1 c0 -7 -30 -13 -34 -7 -3 4 4 9 15 9
10 1 19 0 19 -2z m46 -17 c4 -7 3 -8 -5 -4 -6 4 -14 0 -17 -8 -7 -19 -25 -22
-21 -3 2 10 13 19 34 26 1 1 5 -4 9 -11z m94 4 c0 -5 -18 -9 -41 -9 -25 0 -35
3 -27 8 17 11 68 11 68 1z m-185 -12 c3 -6 -1 -7 -9 -4 -18 7 -21 14 -7 14 6
0 13 -4 16 -10z m-90 -20 c3 -6 -1 -7 -9 -4 -18 7 -21 14 -7 14 6 0 13 -4 16
-10z m82 -5 c9 -24 -4 -30 -32 -15 -19 10 -22 16 -13 22 20 12 38 9 45 -7z
m-112 -5 c3 -5 1 -10 -4 -10 -6 0 -11 5 -11 10 0 6 2 10 4 10 3 0 8 -4 11 -10z
m-2927 -92 c19 -19 14 -42 -15 -70 -56 -52 -114 -64 -133 -27 -29 54 104 141
148 97z m669 -704 c-3 -3 -12 -4 -19 -1 -8 3 -5 6 6 6 11 1 17 -2 13 -5z
m-174 -11 c-7 -2 -19 -2 -25 0 -7 3 -2 5 12 5 14 0 19 -2 13 -5z m-300 -40
c-7 -2 -19 -2 -25 0 -7 3 -2 5 12 5 14 0 19 -2 13 -5z m-96 -19 c-3 -3 -12 -4
-19 -1 -8 3 -5 6 6 6 11 1 17 -2 13 -5z m-492 -164 c-3 -5 -12 -10 -18 -10 -7
0 -6 4 3 10 19 12 23 12 15 0z m-296 -173 c-2 -1 -13 -9 -24 -17 -19 -14 -19
-14 -6 3 7 9 18 17 24 17 6 0 8 -1 6 -3z m-149 -110 c0 -2 -17 -19 -37 -38
l-38 -34 34 38 c33 34 41 42 41 34z m-107 -110 c-15 -19 -30 -32 -32 -30 -5 3
49 63 57 63 2 0 -9 -15 -25 -33z m-129 -164 c-34 -46 -50 -64 -39 -43 13 24
55 80 61 80 3 0 -7 -17 -22 -37z m-106 -179 c-26 -53 -48 -102 -48 -109 0 -8
-4 -17 -10 -20 -5 -3 -3 11 4 33 22 62 90 192 100 192 1 0 -19 -43 -46 -96z
m-88 -219 c-16 -47 -23 -40 -8 8 6 20 13 35 16 33 2 -3 -1 -21 -8 -41z m-23
-67 c-3 -8 -6 -5 -6 6 -1 11 2 17 5 13 3 -3 4 -12 1 -19z m233 -342 c0 -11
-19 -15 -25 -6 -3 5 1 10 9 10 9 0 16 -2 16 -4z m-150 -46 c18 -12 2 -12 -25
0 -13 6 -15 9 -5 9 8 0 22 -4 30 -9z m257 -16 c-3 -3 -12 -4 -19 -1 -8 3 -5 6
6 6 11 1 17 -2 13 -5z m-52 -14 c3 -6 -4 -10 -17 -10 -18 0 -20 2 -8 10 19 12
18 12 25 0z m-127 -17 c-10 -2 -28 -2 -40 0 -13 2 -5 4 17 4 22 1 32 -1 23 -4z
m180 -11 c-10 -2 -18 -8 -18 -13 0 -5 -7 -9 -16 -9 -12 0 -11 5 7 19 13 11 28
16 34 13 5 -4 2 -8 -7 -10z m36 -7 c3 -8 1 -15 -4 -15 -6 0 -10 7 -10 15 0 8
2 15 4 15 2 0 6 -7 10 -15z m53 9 c-3 -3 -12 -4 -19 -1 -8 3 -5 6 6 6 11 1 17
-2 13 -5z m-397 -12 c0 -10 -45 -32 -63 -32 -7 1 4 9 23 20 41 23 40 22 40 12z
m38 -4 c-2 -7 8 -14 22 -16 14 -2 30 -8 35 -14 7 -7 0 -9 -23 -4 -21 3 -31 2
-27 -4 8 -13 -26 -13 -45 0 -12 8 -11 10 7 8 12 -2 22 2 21 7 0 6 -5 9 -11 7
-6 -2 -5 4 3 12 15 19 21 20 18 4z m176 -19 c-6 -11 -31 -12 -37 -1 -3 4 6 8
19 8 13 1 21 -2 18 -7z m36 7 c0 -3 -4 -8 -10 -11 -5 -3 -10 -1 -10 4 0 6 5
11 10 11 6 0 10 -2 10 -4z m195 -6 c-27 -12 -35 -12 -35 0 0 6 12 10 28 9 24
0 25 -1 7 -9z m95 -12 c10 -6 3 -7 -20 -2 -19 3 -39 10 -45 16 -12 11 42 0 65
-14z m-235 5 c-11 -3 -24 -9 -29 -14 -6 -5 -14 -9 -20 -9 -5 0 -1 7 10 15 10
8 28 14 39 14 l20 -1 -20 -5z m-205 -37 c0 -2 -9 -6 -20 -9 -11 -3 -20 -1 -20
4 0 5 9 9 20 9 11 0 20 -2 20 -4z m293 -3 c-7 -2 -19 -2 -25 0 -7 3 -2 5 12 5
14 0 19 -2 13 -5z m254 -39 c-3 -3 -12 -4 -19 -1 -8 3 -5 6 6 6 11 1 17 -2 13
-5z"/>
<path d="M6500 6739 c0 -5 5 -7 10 -4 6 3 10 8 10 11 0 2 -4 4 -10 4 -5 0 -10
-5 -10 -11z"/>
<path d="M6285 7700 c3 -5 11 -10 16 -10 6 0 7 5 4 10 -3 6 -11 10 -16 10 -6
0 -7 -4 -4 -10z"/>
<path d="M6891 6905 c0 -5 9 -44 20 -85 10 -41 17 -57 14 -35 -5 40 -33 139
-34 120z"/>
<path d="M6879 6815 c-1 -3 -3 -9 -4 -15 -1 -5 -3 -15 -4 -21 -1 -8 -5 -8 -14
-1 -10 8 -13 6 -14 -11 -2 -22 12 -37 35 -37 7 0 10 5 7 10 -4 6 -10 8 -15 5
-5 -3 -12 0 -16 6 -5 8 3 10 25 7 26 -4 31 -2 25 11 -4 9 -6 24 -6 34 1 15
-16 25 -19 12z"/>
<path d="M6933 6705 c0 -22 2 -30 4 -17 2 12 2 30 0 40 -3 9 -5 -1 -4 -23z"/>
<path d="M6804 6718 c-3 -4 11 -8 30 -8 20 0 36 2 36 4 0 8 -61 12 -66 4z"/>
<path d="M6870 6700 c-9 -6 -10 -10 -3 -10 6 0 15 5 18 10 8 12 4 12 -15 0z"/>
<path d="M6488 6688 c5 -5 19 -4 33 1 23 10 22 10 -8 8 -18 0 -29 -5 -25 -9z"/>
<path d="M6750 6696 c0 -2 8 -10 18 -17 15 -13 16 -12 3 4 -13 16 -21 21 -21
13z"/>
<path d="M6650 6680 c0 -5 5 -10 11 -10 5 0 7 5 4 10 -3 6 -8 10 -11 10 -2 0
-4 -4 -4 -10z"/>
<path d="M6530 6670 c-12 -7 -10 -9 7 -7 12 0 19 5 17 9 -6 10 -6 10 -24 -2z"/>
<path d="M6735 6660 c3 -5 11 -10 16 -10 6 0 7 5 4 10 -3 6 -11 10 -16 10 -6
0 -7 -4 -4 -10z"/>
<path d="M6944 6555 c0 -55 1 -76 3 -47 2 29 2 74 0 100 -2 26 -3 2 -3 -53z"/>
<path d="M6730 6619 c0 -5 5 -7 10 -4 6 3 10 8 10 11 0 2 -4 4 -10 4 -5 0 -10
-5 -10 -11z"/>
<path d="M6513 6613 c9 -2 23 -2 30 0 6 3 -1 5 -18 5 -16 0 -22 -2 -12 -5z"/>
<path d="M6933 6405 c0 -22 2 -30 4 -17 2 12 2 30 0 40 -3 9 -5 -1 -4 -23z"/>
<path d="M6922 6340 c0 -14 2 -19 5 -12 2 6 2 18 0 25 -3 6 -5 1 -5 -13z"/>
<path d="M6912 6290 c0 -14 2 -19 5 -12 2 6 2 18 0 25 -3 6 -5 1 -5 -13z"/>
<path d="M6901 6244 c0 -11 3 -14 6 -6 3 7 2 16 -1 19 -3 4 -6 -2 -5 -13z"/>
<path d="M6881 6174 c0 -11 3 -14 6 -6 3 7 2 16 -1 19 -3 4 -6 -2 -5 -13z"/>
<path d="M6856 6105 c-9 -26 -7 -32 5 -12 6 10 9 21 6 23 -2 3 -7 -2 -11 -11z"/>
<path d="M6802 5975 c-12 -25 -20 -45 -17 -45 7 0 47 81 43 86 -3 2 -14 -17
-26 -41z"/>
<path d="M6659 5743 c-13 -16 -12 -17 4 -4 9 7 17 15 17 17 0 8 -8 3 -21 -13z"/>
<path d="M6595 5668 l-40 -43 43 40 c39 36 47 45 39 45 -2 0 -21 -19 -42 -42z"/>
<path d="M6529 5593 l-24 -28 28 24 c15 14 27 26 27 28 0 8 -8 1 -31 -24z"/>
<path d="M6425 5503 c-56 -51 -56 -53 -9 -15 46 38 82 73 73 72 -2 -1 -31 -26
-64 -57z"/>
<path d="M7030 5253 c-77 -8 -237 -46 -333 -80 -132 -45 -310 -130 -303 -142
4 -6 -4 -15 -16 -21 -22 -11 -22 -10 -4 4 28 23 10 20 -35 -6 -21 -11 -35 -26
-32 -31 3 -6 1 -7 -5 -3 -14 9 -55 -12 -47 -24 3 -5 0 -12 -6 -16 -8 -5 -9 -3
-4 6 5 8 3 11 -6 8 -8 -3 -13 -11 -11 -17 1 -7 -2 -10 -8 -6 -10 6 -184 -97
-196 -117 -8 -13 1 -8 61 32 53 35 73 46 60 32 -11 -11 -101 -74 -178 -124
-37 -23 -45 -33 -35 -40 10 -8 9 -9 -3 -5 -18 6 -94 -41 -147 -91 -17 -16 -34
-26 -37 -22 -5 8 50 50 198 154 92 66 85 69 -10 4 -164 -110 -515 -390 -663
-529 l-55 -51 63 54 c35 29 99 83 143 121 44 37 84 65 88 62 5 -2 11 -13 14
-24 3 -15 -2 -20 -24 -25 -42 -8 -35 -23 9 -18 l37 4 -33 -21 c-18 -12 -39
-21 -47 -21 -7 0 -16 -4 -19 -9 -9 -13 -42 -6 -38 9 1 6 -2 9 -7 5 -13 -8 -2
-37 13 -32 6 2 16 -3 23 -12 17 -22 16 -36 -1 -22 -11 9 -20 10 -35 1 -12 -6
-21 -13 -21 -16 0 -2 9 0 21 7 25 13 54 -5 30 -20 -9 -6 -4 -11 18 -19 35 -12
40 -22 13 -22 -10 0 -27 8 -38 18 -13 13 -26 16 -39 11 -18 -7 -19 -8 -2 -8
11 -1 31 -7 45 -15 35 -19 65 -30 75 -27 5 1 6 -3 2 -9 -6 -9 7 -14 28 -11 4
0 7 -6 7 -14 0 -19 -14 -19 -34 0 -8 8 -20 15 -26 15 -6 0 -9 4 -6 9 3 4 -10
7 -29 5 -23 -1 -33 1 -28 9 4 7 0 8 -11 4 -10 -4 -25 -7 -33 -7 -13 0 -13 -3
-3 -15 7 -9 16 -12 19 -8 5 7 16 8 71 4 11 -1 11 -4 2 -13 -7 -7 -12 -17 -12
-22 0 -6 4 -5 9 3 8 12 16 12 54 0 25 -7 44 -16 41 -20 -2 -4 -21 -1 -42 8
-20 8 -33 11 -29 7 4 -5 -14 -19 -40 -32 -26 -13 -38 -21 -25 -19 14 3 26 -1
33 -11 10 -16 10 -16 5 0 -3 11 3 23 16 32 18 13 24 13 49 1 18 -10 30 -11 34
-5 4 6 11 8 16 4 5 -3 16 0 24 6 11 9 15 9 15 1 0 -14 -13 -19 -60 -25 -49 -6
-80 -17 -80 -27 0 -12 7 -11 32 2 11 6 39 12 62 13 22 1 50 6 61 10 11 5 6 -1
-10 -11 -17 -11 -37 -20 -45 -21 -8 -1 -58 -5 -110 -10 l-95 -9 90 -2 c50 0
105 3 123 8 41 12 41 5 0 -14 l-33 -14 38 5 c23 4 43 2 52 -6 8 -7 15 -9 15
-4 0 5 17 8 37 7 54 -2 53 -2 53 -11 0 -11 -108 -14 -115 -2 -3 4 -21 6 -41 4
-20 -2 -42 0 -49 6 -10 8 -15 7 -21 -2 -4 -7 -4 -10 1 -6 4 4 13 1 19 -8 9
-12 17 -13 38 -5 17 6 29 6 36 -1 6 -6 38 -11 71 -10 60 0 85 7 77 21 -3 4 9
5 27 2 l32 -5 -30 -7 c-18 -4 -22 -7 -11 -8 20 -1 20 -1 0 -16 -24 -18 -37
-19 -29 -2 3 6 0 5 -6 -5 -11 -14 -15 -15 -36 -1 -14 10 -23 11 -23 4 0 -6 8
-11 18 -12 13 0 12 -2 -5 -9 -13 -5 -23 -11 -23 -12 0 -2 20 -4 45 -5 26 -1
45 2 45 8 0 6 4 8 9 5 11 -7 8 -35 -5 -44 -5 -4 -20 -21 -34 -37 -13 -17 -3
-10 22 14 38 36 45 47 36 59 -10 11 -8 16 5 24 10 5 15 13 12 19 -4 5 -2 9 4
9 5 0 13 -4 16 -10 3 -5 1 -10 -5 -10 -6 0 -8 -5 -5 -10 5 -8 11 -7 21 1 13
10 12 15 -3 33 -18 21 -18 21 3 3 18 -14 23 -15 32 -4 8 10 8 17 1 24 -13 13
-4 33 14 32 9 0 9 -2 0 -5 -7 -3 -9 -12 -6 -20 4 -10 34 13 105 78 143 134
303 274 383 338 77 62 319 236 365 263 56 33 30 10 -42 -38 -286 -190 -475
-354 -938 -810 -447 -441 -624 -600 -875 -782 -433 -314 -758 -440 -1150 -444
l-120 -2 85 -9 c97 -10 364 -4 490 12 415 53 818 231 1241 550 145 109 244
192 463 385 703 620 944 794 1156 836 159 31 290 -35 335 -171 34 -103 3 -265
-75 -392 -17 -27 -28 -53 -25 -59 4 -5 1 -8 -6 -7 -6 2 -14 -3 -17 -11 -3 -9
0 -11 8 -6 9 6 11 4 6 -4 -5 -7 -11 -10 -14 -7 -7 7 -42 -24 -42 -37 0 -5 8
-3 18 4 15 11 15 11 4 -1 -7 -8 -16 -15 -20 -15 -4 0 -54 -46 -111 -103 -57
-57 -150 -137 -205 -179 -107 -80 -128 -98 -83 -70 27 17 53 15 41 -4 -3 -5
-9 -7 -13 -5 -10 6 -93 -49 -85 -56 3 -4 14 2 25 13 11 11 25 17 31 13 7 -4 8
-3 4 4 -5 8 1 12 14 12 12 0 18 -4 15 -10 -3 -5 1 -10 10 -10 9 0 13 5 10 10
-8 12 74 13 94 1 9 -6 -2 -8 -30 -6 -24 1 -29 0 -11 -2 24 -3 32 -8 28 -18 -3
-8 0 -17 6 -21 7 -4 6 -9 -3 -15 -7 -4 -18 -4 -24 1 -5 4 -48 4 -95 0 l-85 -8
75 0 c41 1 83 -2 92 -6 9 -4 21 -5 27 -2 5 4 12 2 15 -3 3 -4 41 -6 83 -3 161
10 241 4 248 -19 4 -11 21 -18 52 -22 25 -2 49 -10 53 -17 5 -9 13 -9 27 -1
11 5 23 8 25 5 3 -2 11 2 18 11 7 8 17 15 23 15 5 0 2 -9 -8 -20 -11 -12 -25
-18 -34 -15 -8 3 -12 3 -8 -1 8 -8 -11 -34 -25 -34 -6 0 -4 8 3 18 12 15 12
16 -2 5 -9 -7 -19 -10 -22 -6 -4 3 -7 1 -7 -5 0 -7 -16 -12 -40 -12 -22 0 -40
4 -40 9 0 5 13 7 30 6 16 -1 34 3 40 10 9 11 6 12 -12 8 -18 -4 -20 -3 -8 6
12 9 10 11 -13 11 -16 0 -26 -3 -24 -7 3 -5 -6 -9 -20 -10 -33 -1 -56 -23 -25
-23 13 0 22 -6 22 -16 0 -12 7 -14 31 -9 22 5 29 4 25 -4 -11 -17 10 -13 24 4
7 8 17 15 23 15 5 0 2 -10 -9 -22 -15 -18 -11 -16 21 6 177 129 347 303 477
491 75 108 151 252 144 271 -3 8 -2 13 3 9 21 -12 94 228 110 360 22 180 12
320 -31 455 -30 93 -86 202 -100 194 -7 -4 -8 -3 -4 5 14 22 -150 211 -172
198 -12 -8 -47 18 -47 34 0 42 -279 150 -435 169 -80 9 -243 11 -320 3z m83
-10 c-7 -2 -19 -2 -25 0 -7 3 -2 5 12 5 14 0 19 -2 13 -5z m140 0 c-7 -2 -19
-2 -25 0 -7 3 -2 5 12 5 14 0 19 -2 13 -5z m-236 -9 c-3 -3 -12 -4 -19 -1 -8
3 -5 6 6 6 11 1 17 -2 13 -5z m-60 -10 c-3 -3 -12 -4 -19 -1 -8 3 -5 6 6 6 11
1 17 -2 13 -5z m470 0 c-3 -3 -12 -4 -19 -1 -8 3 -5 6 6 6 11 1 17 -2 13 -5z
m-532 -14 c-11 -5 -29 -8 -40 -8 -16 0 -15 2 5 8 34 11 60 11 35 0z m572 4
c-3 -3 -12 -4 -19 -1 -8 3 -5 6 6 6 11 1 17 -2 13 -5z m-710 -40 c-3 -3 -12
-4 -19 -1 -8 3 -5 6 6 6 11 1 17 -2 13 -5z m883 -14 c8 -5 11 -10 5 -10 -5 0
-17 5 -25 10 -8 5 -10 10 -5 10 6 0 17 -5 25 -10z m-980 -20 c-8 -5 -19 -10
-25 -10 -5 0 -3 5 5 10 8 5 20 10 25 10 6 0 3 -5 -5 -10z m1060 -26 c0 -2 -9
0 -20 6 -11 6 -20 13 -20 16 0 2 9 0 20 -6 11 -6 20 -13 20 -16z m50 -30 c0
-2 -9 0 -20 6 -11 6 -20 13 -20 16 0 2 9 0 20 -6 11 -6 20 -13 20 -16z m-187
-151 c-7 -2 -21 -2 -30 0 -10 3 -4 5 12 5 17 0 24 -2 18 -5z m-533 -118 c-14
-8 -29 -14 -35 -14 -5 0 1 6 15 14 14 8 30 14 35 14 6 0 -1 -6 -15 -14z m-170
-80 c0 -2 -13 -11 -30 -20 -38 -19 -40 -11 -2 9 31 17 32 18 32 11z m-70 -40
c0 -2 -10 -9 -22 -15 -22 -11 -22 -10 -4 4 21 17 26 19 26 11z m-1102 -137
c-20 -18 -44 -38 -55 -45 -10 -6 -17 -16 -15 -23 1 -6 -1 -9 -6 -7 -4 3 -19
-4 -32 -15 -16 -13 -19 -18 -7 -14 9 3 17 1 17 -4 0 -6 -6 -10 -14 -10 -7 0
-20 -8 -27 -17 -13 -15 -12 -16 8 -11 13 4 26 2 29 -3 3 -5 -4 -9 -15 -9 -11
0 -23 -4 -26 -10 -3 -5 -14 -10 -23 -9 -14 0 -13 2 3 9 20 8 17 11 -25 22 -9
3 6 19 40 45 30 23 80 62 110 87 63 52 92 62 38 14z m-73 -128 c-3 -5 -12 -10
-18 -10 -7 0 -6 4 3 10 19 12 23 12 15 0z m-60 -70 c-3 -5 -14 -10 -23 -9 -14
0 -13 2 3 9 27 11 27 11 20 0z m45 6 c0 -2 -7 -7 -16 -10 -8 -3 -12 -2 -9 4 6
10 25 14 25 6z m-10 -40 c0 -3 -4 -8 -10 -11 -5 -3 -10 -1 -10 4 0 6 5 11 10
11 6 0 10 -2 10 -4z m97 -2 c-3 -3 -12 -4 -19 -1 -8 3 -5 6 6 6 11 1 17 -2 13
-5z m-162 -14 c-3 -5 -16 -10 -28 -9 -20 1 -20 2 3 9 14 4 26 8 28 9 2 1 0 -3
-3 -9z m-10 -30 c3 -5 1 -10 -4 -10 -6 0 -11 5 -11 10 0 6 2 10 4 10 3 0 8 -4
11 -10z m55 0 c0 -5 -7 -10 -16 -10 -8 0 -12 5 -9 10 3 6 10 10 16 10 5 0 9
-4 9 -10z m-83 -20 c1 -15 -4 -20 -23 -20 -14 0 -23 4 -19 10 3 5 13 6 22 3
11 -5 14 -3 9 6 -5 8 -18 10 -33 6 -16 -4 -22 -2 -18 5 3 5 18 10 33 10 21 0
28 -5 29 -20z m280 4 c-3 -3 -12 -4 -19 -1 -8 3 -5 6 6 6 11 1 17 -2 13 -5z
m-240 -10 c-3 -3 -12 -4 -19 -1 -8 3 -5 6 6 6 11 1 17 -2 13 -5z m43 -4 c8 -5
11 -10 5 -10 -5 0 -17 5 -25 10 -8 5 -10 10 -5 10 6 0 17 -5 25 -10z m250 -20
c0 -5 -5 -10 -11 -10 -5 0 -7 5 -4 10 3 6 8 10 11 10 2 0 4 -4 4 -10z m-163
-6 c-3 -3 -12 -4 -19 -1 -8 3 -5 6 6 6 11 1 17 -2 13 -5z m116 -1 c-7 -2 -19
-2 -25 0 -7 3 -2 5 12 5 14 0 19 -2 13 -5z m-313 -7 c0 -2 -9 -6 -20 -9 -11
-3 -18 -1 -14 4 5 9 34 13 34 5z m35 -16 c-3 -5 -14 -10 -23 -9 -14 0 -13 2 3
9 27 11 27 11 20 0z m35 -12 c0 -12 -3 -18 -6 -15 -4 3 -15 2 -25 -3 -10 -6
-20 -6 -23 -1 -3 5 6 12 19 15 14 4 23 11 20 16 -3 6 -1 10 4 10 6 0 11 -10
11 -22z m142 6 c-12 -8 -30 -13 -40 -11 -13 4 -12 5 5 6 12 0 25 6 28 11 3 6
11 10 18 10 6 0 1 -7 -11 -16z m105 3 c-17 -5 -37 -6 -48 -1 -14 7 -7 9 28 10
43 1 45 0 20 -9z m106 6 c-7 -2 -19 -2 -25 0 -7 3 -2 5 12 5 14 0 19 -2 13 -5z
m-76 -29 c-3 -3 -12 -4 -19 -1 -8 3 -5 6 6 6 11 1 17 -2 13 -5z m-240 -10 c-3
-3 -12 -4 -19 -1 -8 3 -5 6 6 6 11 1 17 -2 13 -5z m-27 -24 c0 -5 -7 -7 -15
-4 -8 4 -15 8 -15 10 0 2 7 4 15 4 8 0 15 -4 15 -10z m260 0 c-8 -5 -22 -9
-30 -9 -10 0 -8 3 5 9 27 12 43 12 25 0z m-195 -19 c3 -5 2 -12 -3 -15 -5 -3
-9 1 -9 9 0 17 3 19 12 6z m130 4 c-25 -9 -104 -12 -99 -4 3 5 29 9 57 8 29 0
48 -2 42 -4z m-155 -15 c0 -5 -12 -10 -27 -9 l-28 1 25 8 c14 4 26 8 28 9 1 1
2 -3 2 -9z m210 -4 c0 -2 -7 -7 -16 -10 -8 -3 -12 -2 -9 4 6 10 25 14 25 6z
m-40 -16 c0 -5 -12 -10 -27 -9 -25 0 -26 1 -8 9 27 12 35 12 35 0z m-57 -57
c-3 -8 -11 -12 -17 -10 -14 5 -48 -12 -42 -21 3 -5 -4 -9 -15 -9 -11 -1 -19 3
-17 8 2 6 7 10 12 9 5 -1 12 2 15 7 19 25 73 39 64 16z m117 -23 c0 -5 -9 -10
-20 -10 -11 0 -20 -4 -20 -10 0 -5 -5 -10 -11 -10 -23 0 15 31 49 39 1 1 2 -3
2 -9z m37 4 c-3 -3 -12 -4 -19 -1 -8 3 -5 6 6 6 11 1 17 -2 13 -5z m-110 -10
c-3 -3 -12 -4 -19 -1 -8 3 -5 6 6 6 11 1 17 -2 13 -5z m0 -20 c-3 -3 -12 -4
-19 -1 -8 3 -5 6 6 6 11 1 17 -2 13 -5z m2197 -296 c-25 -48 -106 -169 -111
-164 -2 2 16 33 41 69 24 35 52 79 60 96 9 17 19 31 22 31 2 0 -3 -15 -12 -32z
m-800 -120 c-32 -35 -84 -85 -116 -113 -31 -27 -55 -56 -52 -62 2 -7 0 -12 -4
-12 -23 4 -41 -5 -75 -35 -21 -20 -33 -37 -27 -41 5 -3 15 -3 20 0 6 3 10 4
10 1 0 -3 -10 -10 -21 -17 -13 -7 -19 -7 -15 -1 4 6 -1 15 -9 20 -13 7 -1 20
61 67 43 32 121 102 174 155 106 107 147 136 54 38z m639 -120 c-52 -69 -280
-298 -295 -298 -6 0 35 43 90 95 55 52 132 133 172 180 40 47 74 85 77 85 2 0
-17 -28 -44 -62z m-823 -82 c0 -2 -7 -7 -16 -10 -8 -3 -12 -2 -9 4 6 10 25 14
25 6z m63 -33 c-7 -2 -19 -2 -25 0 -7 3 -2 5 12 5 14 0 19 -2 13 -5z m-69 -35
c-3 -4 10 -12 28 -17 l33 -9 -29 -1 c-31 -1 -57 24 -48 47 4 11 6 11 13 1 4
-7 6 -16 3 -21z m85 -59 c-14 -27 -11 -32 19 -27 18 2 29 0 29 -8 0 -7 -16
-11 -40 -11 -25 0 -34 3 -25 8 13 9 -14 14 -54 10 -9 -1 -19 3 -23 9 -5 8 5
11 33 9 53 -4 64 7 21 20 l-34 10 42 -2 c36 -1 40 -3 32 -18z m116 11 c-11 -5
-33 -8 -50 -8 l-30 0 30 8 c17 4 39 8 50 8 l20 1 -20 -9z m82 4 c-3 -3 -12 -4
-19 -1 -8 3 -5 6 6 6 11 1 17 -2 13 -5z m278 -34 c-3 -5 -16 -10 -28 -9 -20 1
-20 2 3 9 14 4 26 8 28 9 2 1 0 -3 -3 -9z m-315 -10 c0 -5 -8 -10 -17 -10 -15
0 -16 2 -3 10 19 12 20 12 20 0z m-203 -16 c-3 -3 -12 -4 -19 -1 -8 3 -5 6 6
6 11 1 17 -2 13 -5z m380 0 c-3 -3 -12 -4 -19 -1 -8 3 -5 6 6 6 11 1 17 -2 13
-5z m103 -18 c0 -3 -4 -8 -10 -11 -5 -3 -10 -1 -10 4 0 6 5 11 10 11 6 0 10
-2 10 -4z m-125 -16 c-27 -12 -43 -12 -25 0 8 5 22 9 30 9 10 0 8 -3 -5 -9z"/>
<path d="M5549 4433 c-13 -15 -12 -15 9 -4 23 12 28 21 13 21 -5 0 -15 -7 -22
-17z"/>
<path d="M7790 5075 c0 -2 10 -10 23 -16 20 -11 21 -11 8 4 -13 16 -31 23 -31
12z"/>
<path d="M4938 4953 c7 -3 16 -2 19 1 4 3 -2 6 -13 5 -11 0 -14 -3 -6 -6z"/>
<path d="M4848 4943 c7 -3 16 -2 19 1 4 3 -2 6 -13 5 -11 0 -14 -3 -6 -6z"/>
<path d="M4518 4903 c7 -3 16 -2 19 1 4 3 -2 6 -13 5 -11 0 -14 -3 -6 -6z"/>
<path d="M4428 4893 c6 -2 18 -2 25 0 6 3 1 5 -13 5 -14 0 -19 -2 -12 -5z"/>
<path d="M3714 4628 l-19 -23 23 19 c12 11 22 21 22 23 0 8 -8 2 -26 -19z"/>
<path d="M2152 4568 c-7 -36 -12 -76 -11 -89 0 -13 7 12 15 55 8 44 13 84 11
89 -2 6 -8 -19 -15 -55z"/>
<path d="M3664 4588 l-19 -23 23 19 c21 18 27 26 19 26 -2 0 -12 -10 -23 -22z"/>
<path d="M3599 4513 c-13 -16 -12 -17 4 -4 9 7 17 15 17 17 0 8 -8 3 -21 -13z"/>
<path d="M2135 4220 c3 -197 6 -240 29 -346 14 -67 40 -161 57 -210 32 -93
135 -315 162 -349 9 -11 -14 41 -51 115 -134 268 -181 464 -192 795 l-8 220 3
-225z"/>
<path d="M5433 4313 c9 -2 25 -2 35 0 9 3 1 5 -18 5 -19 0 -27 -2 -17 -5z"/>
<path d="M5365 4280 c-3 -5 -1 -10 4 -10 6 0 11 5 11 10 0 6 -2 10 -4 10 -3 0
-8 -4 -11 -10z"/>
<path d="M5336 4252 c-3 -5 1 -9 9 -9 8 0 12 4 9 9 -3 4 -7 8 -9 8 -2 0 -6 -4
-9 -8z"/>
<path d="M5164 4128 l-19 -23 23 19 c21 18 27 26 19 26 -2 0 -12 -10 -23 -22z"/>
<path d="M5296 4125 c4 -8 11 -15 16 -15 6 0 5 6 -2 15 -7 8 -14 15 -16 15 -2
0 -1 -7 2 -15z"/>
<path d="M5327 4124 c2 -7 11 -10 19 -7 19 7 18 10 -5 16 -13 3 -18 1 -14 -9z"/>
<path d="M2210 4119 c0 -5 5 -7 10 -4 6 3 10 8 10 11 0 2 -4 4 -10 4 -5 0 -10
-5 -10 -11z"/>
<path d="M2168 4113 c6 -2 18 -2 25 0 6 3 1 5 -13 5 -14 0 -19 -2 -12 -5z"/>
<path d="M2466 4105 c-11 -8 -15 -15 -10 -15 6 0 15 5 20 10 6 6 19 7 29 4 17
-7 17 -8 -3 -15 -12 -5 -22 -14 -21 -21 0 -10 2 -10 6 0 2 6 11 12 18 12 8 0
19 9 25 20 10 18 8 20 -17 20 -15 0 -37 -7 -47 -15z"/>
<path d="M5408 4113 c6 -2 18 -2 25 0 6 3 1 5 -13 5 -14 0 -19 -2 -12 -5z"/>
<path d="M2160 4091 c0 -10 48 -12 54 -3 3 5 -8 9 -24 9 -17 0 -30 -3 -30 -6z"/>
<path d="M2618 4083 c6 -2 18 -2 25 0 6 3 1 5 -13 5 -14 0 -19 -2 -12 -5z"/>
<path d="M5284 4074 c-18 -14 -18 -15 4 -4 12 6 22 13 22 15 0 8 -5 6 -26 -11z"/>
<path d="M5398 4077 c16 -7 26 -7 34 1 8 8 2 10 -23 10 -31 -1 -32 -2 -11 -11z"/>
<path d="M2353 4061 c0 -11 5 -18 9 -15 4 3 5 11 1 19 -7 21 -12 19 -10 -4z"/>
<path d="M2400 4061 c-18 -5 -21 -8 -10 -12 8 -3 26 0 40 8 26 13 12 16 -30 4z"/>
<path d="M5330 4063 c0 -5 12 -9 27 -10 19 -1 22 1 12 8 -17 11 -39 12 -39 2z"/>
<path d="M2234 4048 c12 -7 21 -7 28 0 6 6 0 10 -18 10 -23 0 -24 -2 -10 -10z"/>
<path d="M2505 4051 c-11 -5 -23 -7 -27 -4 -15 8 -8 -5 9 -18 9 -8 14 -9 10
-3 -9 15 38 25 52 11 8 -8 11 -8 11 0 0 9 -25 26 -33 22 -1 0 -11 -4 -22 -8z"/>
<path d="M5480 4051 c0 -5 9 -7 20 -4 11 3 20 7 20 9 0 2 -9 4 -20 4 -11 0
-20 -4 -20 -9z"/>
<path d="M2698 4043 c7 -3 16 -2 19 1 4 3 -2 6 -13 5 -11 0 -14 -3 -6 -6z"/>
<path d="M2420 4036 c0 -2 9 -6 20 -9 11 -3 18 -1 14 4 -5 9 -34 13 -34 5z"/>
<path d="M2748 4033 c7 -3 16 -2 19 1 4 3 -2 6 -13 5 -11 0 -14 -3 -6 -6z"/>
<path d="M2188 4023 c7 -3 16 -2 19 1 4 3 -2 6 -13 5 -11 0 -14 -3 -6 -6z"/>
<path d="M5029 4013 c-13 -16 -12 -17 4 -4 9 7 17 15 17 17 0 8 -8 3 -21 -13z"/>
<path d="M2398 4013 c7 -3 16 -2 19 1 4 3 -2 6 -13 5 -11 0 -14 -3 -6 -6z"/>
<path d="M2278 4003 c7 -3 16 -2 19 1 4 3 -2 6 -13 5 -11 0 -14 -3 -6 -6z"/>
<path d="M2215 3980 c-16 -7 -17 -9 -3 -9 9 -1 20 4 23 9 7 11 7 11 -20 0z"/>
<path d="M2546 3982 c-3 -4 4 -9 15 -9 23 -2 25 3 4 10 -8 4 -16 3 -19 -1z"/>
<path d="M2620 3980 c-8 -5 -10 -10 -5 -10 6 0 17 5 25 10 8 5 11 10 5 10 -5
0 -17 -5 -25 -10z"/>
<path d="M2728 3983 c7 -3 16 -2 19 1 4 3 -2 6 -13 5 -11 0 -14 -3 -6 -6z"/>
<path d="M4974 3968 l-19 -23 23 19 c12 11 22 21 22 23 0 8 -8 2 -26 -19z"/>
<path d="M4994 3958 l-19 -23 23 19 c12 11 22 21 22 23 0 8 -8 2 -26 -19z"/>
<path d="M2688 3963 c6 -2 18 -2 25 0 6 3 1 5 -13 5 -14 0 -19 -2 -12 -5z"/>
<path d="M2810 3960 c-8 -5 -10 -10 -5 -10 6 0 17 5 25 10 8 5 11 10 5 10 -5
0 -17 -5 -25 -10z"/>
<path d="M2225 3950 c-13 -6 -15 -9 -5 -9 8 0 22 4 30 9 18 12 2 12 -25 0z"/>
<path d="M5593 3919 c14 -8 22 -8 30 0 8 8 3 11 -18 11 -26 -1 -28 -2 -12 -11z"/>
<path d="M5632 3918 c-18 -18 -14 -28 11 -24 12 1 22 9 22 16 0 18 -18 23 -33
8z"/>
<path d="M2428 3913 c7 -3 16 -2 19 1 4 3 -2 6 -13 5 -11 0 -14 -3 -6 -6z"/>
<path d="M4889 3903 c-13 -16 -12 -17 4 -4 16 13 21 21 13 21 -2 0 -10 -8 -17
-17z"/>
<path d="M5485 3910 c4 -6 11 -8 16 -5 14 9 11 15 -7 15 -8 0 -12 -5 -9 -10z"/>
<path d="M2688 3903 c6 -2 18 -2 25 0 6 3 1 5 -13 5 -14 0 -19 -2 -12 -5z"/>
<path d="M5535 3900 c-4 -7 3 -8 22 -4 38 9 42 14 10 14 -14 0 -29 -5 -32 -10z"/>
<path d="M4894 3878 l-19 -23 23 19 c21 18 27 26 19 26 -2 0 -12 -10 -23 -22z"/>
<path d="M5800 3889 c0 -5 5 -7 10 -4 6 3 10 8 10 11 0 2 -4 4 -10 4 -5 0 -10
-5 -10 -11z"/>
<path d="M5483 3873 c9 -2 23 -2 30 0 6 3 -1 5 -18 5 -16 0 -22 -2 -12 -5z"/>
<path d="M5575 3870 c11 -5 27 -9 35 -9 9 0 8 4 -5 9 -11 5 -27 9 -35 9 -9 0
-8 -4 5 -9z"/>
<path d="M5636 3864 c-4 -12 -1 -14 14 -9 14 5 20 2 20 -9 0 -9 -5 -16 -12
-16 -6 0 -9 -2 -6 -5 3 -3 17 1 33 9 23 12 24 15 8 19 -10 3 0 5 21 6 44 1 45
7 3 15 -14 2 -29 0 -32 -5 -4 -5 -13 -5 -25 1 -13 7 -19 6 -24 -6z"/>
<path d="M2260 3840 c-9 -6 -10 -10 -3 -10 6 0 15 5 18 10 8 12 4 12 -15 0z"/>
<path d="M2753 3843 c9 -2 23 -2 30 0 6 3 -1 5 -18 5 -16 0 -22 -2 -12 -5z"/>
<path d="M5535 3830 c3 -5 14 -10 23 -10 15 0 15 2 2 10 -20 13 -33 13 -25 0z"/>
<path d="M5625 3830 c3 -5 8 -10 11 -10 2 0 4 5 4 10 0 6 -5 10 -11 10 -5 0
-7 -4 -4 -10z"/>
<path d="M5676 3814 c-3 -8 -10 -13 -15 -10 -5 3 -20 2 -33 -3 -22 -9 -21 -10
7 -8 17 0 44 9 60 19 26 16 27 18 9 18 -12 0 -25 -7 -28 -16z"/>
<path d="M4799 3793 c-13 -16 -12 -17 4 -4 16 13 21 21 13 21 -2 0 -10 -8 -17
-17z"/>
<path d="M5670 3780 c-12 -7 -10 -9 7 -7 12 0 19 5 17 9 -6 10 -6 10 -24 -2z"/>
<path d="M2325 3760 c3 -5 8 -10 11 -10 2 0 4 5 4 10 0 6 -5 10 -11 10 -5 0
-7 -4 -4 -10z"/>
<path d="M2568 3743 c6 -2 18 -2 25 0 6 3 1 5 -13 5 -14 0 -19 -2 -12 -5z"/>
<path d="M4639 3683 c-134 -96 -146 -105 -129 -97 18 9 175 116 210 144 55 43
8 16 -81 -47z"/>
<path d="M5293 3743 c9 -2 23 -2 30 0 6 3 -1 5 -18 5 -16 0 -22 -2 -12 -5z"/>
<path d="M5623 3715 c0 -8 4 -12 9 -9 5 3 6 10 3 15 -9 13 -12 11 -12 -6z"/>
<path d="M5448 3703 c6 -2 18 -2 25 0 6 3 1 5 -13 5 -14 0 -19 -2 -12 -5z"/>
<path d="M2348 3663 c7 -3 16 -2 19 1 4 3 -2 6 -13 5 -11 0 -14 -3 -6 -6z"/>
<path d="M5536 3628 c3 -5 10 -6 15 -3 13 9 11 12 -6 12 -8 0 -12 -4 -9 -9z"/>
<path d="M5509 3593 c-13 -16 -12 -17 4 -4 9 7 17 15 17 17 0 8 -8 3 -21 -13z"/>
<path d="M4458 3564 c-38 -20 -36 -28 2 -9 17 9 30 18 30 20 0 7 -1 6 -32 -11z"/>
<path d="M4375 3520 c-3 -6 1 -7 9 -4 18 7 21 14 7 14 -6 0 -13 -4 -16 -10z"/>
<path d="M4335 3500 c-3 -6 1 -7 9 -4 18 7 21 14 7 14 -6 0 -13 -4 -16 -10z"/>
<path d="M4290 3480 c-8 -5 -10 -10 -5 -10 6 0 17 5 25 10 8 5 11 10 5 10 -5
0 -17 -5 -25 -10z"/>
<path d="M4008 3383 c7 -3 16 -2 19 1 4 3 -2 6 -13 5 -11 0 -14 -3 -6 -6z"/>
<path d="M3558 3373 c7 -3 16 -2 19 1 4 3 -2 6 -13 5 -11 0 -14 -3 -6 -6z"/>
<path d="M3598 3363 c7 -3 16 -2 19 1 4 3 -2 6 -13 5 -11 0 -14 -3 -6 -6z"/>
<path d="M3758 3353 c17 -2 47 -2 65 0 17 2 3 4 -33 4 -36 0 -50 -2 -32 -4z"/>
<path d="M2417 3260 c73 -116 260 -310 363 -379 29 -19 31 -19 10 -2 -191 162
-251 224 -335 344 -47 67 -74 93 -38 37z"/>
<path d="M6656 3209 c-66 -38 -115 -69 -110 -69 11 0 214 116 229 131 16 16 3
9 -119 -62z"/>
<path d="M6800 3230 c0 -5 5 -10 11 -10 5 0 7 5 4 10 -3 6 -8 10 -11 10 -2 0
-4 -4 -4 -10z"/>
<path d="M6855 3230 c-14 -5 -8 -7 22 -6 24 0 43 4 43 9 0 9 -39 8 -65 -3z"/>
<path d="M6640 3169 c0 -5 5 -7 10 -4 6 3 10 8 10 11 0 2 -4 4 -10 4 -5 0 -10
-5 -10 -11z"/>
<path d="M6785 3170 c3 -5 8 -10 11 -10 2 0 4 5 4 10 0 6 -5 10 -11 10 -5 0
-7 -4 -4 -10z"/>
<path d="M6815 3170 c3 -5 8 -10 11 -10 2 0 4 5 4 10 0 6 -5 10 -11 10 -5 0
-7 -4 -4 -10z"/>
<path d="M7126 3171 c-3 -5 12 -8 34 -8 22 1 40 5 40 9 0 11 -67 10 -74 -1z"/>
<path d="M6910 3159 c-12 -8 -9 -9 12 -5 15 3 30 2 33 -4 9 -15 34 -12 51 5
19 18 11 19 -17 3 -17 -10 -23 -10 -26 0 -6 15 -33 16 -53 1z"/>
<path d="M7205 3159 c-4 -6 -35 -8 -78 -5 -94 7 -112 2 -114 -32 -1 -15 1 -21
4 -14 2 6 12 12 21 12 15 0 15 -2 2 -11 -12 -9 -12 -10 3 -5 10 3 27 6 38 6
10 0 19 4 19 9 0 4 -11 6 -25 3 -16 -3 -25 0 -25 8 0 9 12 11 38 8 21 -3 58
-3 82 1 25 3 61 4 80 0 30 -5 26 -7 -25 -8 -33 -2 -54 -5 -47 -8 21 -8 13 -21
-10 -16 -19 4 -20 3 -8 -6 12 -9 11 -11 -7 -11 -13 0 -23 -5 -23 -11 0 -5 -4
-8 -9 -5 -5 3 -26 -1 -47 -8 -35 -13 -36 -15 -12 -15 15 -1 29 3 32 7 3 5 19
9 35 10 16 0 39 5 50 11 11 6 29 11 41 11 12 0 19 4 15 10 -3 5 -13 6 -23 3
-10 -4 -14 -2 -9 3 5 5 22 9 39 10 57 3 58 36 1 47 -18 4 -35 2 -38 -4z"/>
<path d="M6688 3153 c7 -3 16 -2 19 1 4 3 -2 6 -13 5 -11 0 -14 -3 -6 -6z"/>
<path d="M6858 3153 c7 -3 16 -2 19 1 4 3 -2 6 -13 5 -11 0 -14 -3 -6 -6z"/>
<path d="M6965 3120 c-8 -13 5 -13 25 0 13 8 13 10 -2 10 -9 0 -20 -4 -23 -10z"/>
<path d="M6818 3113 c7 -3 16 -2 19 1 4 3 -2 6 -13 5 -11 0 -14 -3 -6 -6z"/>
<path d="M6430 3095 c-14 -8 -20 -14 -15 -14 6 0 21 6 35 14 14 8 21 14 15 14
-5 0 -21 -6 -35 -14z"/>
<path d="M6688 3103 c7 -3 16 -2 19 1 4 3 -2 6 -13 5 -11 0 -14 -3 -6 -6z"/>
<path d="M6920 3089 c-11 -8 -6 -9 22 -4 21 3 38 1 41 -5 3 -6 4 -5 3 2 -3 17
-47 21 -66 7z"/>
<path d="M7050 3089 c-22 -6 -21 -7 8 -6 19 1 35 4 37 8 5 8 -14 7 -45 -2z"/>
<path d="M7184 3063 c-10 -10 -21 -18 -25 -18 -4 0 -11 -3 -15 -7 -4 -5 0 -8
9 -8 9 0 19 5 22 10 4 6 11 8 16 5 5 -4 9 1 9 9 0 10 13 16 43 19 l42 4 -42 1
c-28 1 -47 -4 -59 -15z"/>
<path d="M6340 3055 c-14 -8 -20 -14 -15 -14 6 0 21 6 35 14 14 8 21 14 15 14
-5 0 -21 -6 -35 -14z"/>
<path d="M6758 3063 c6 -2 18 -2 25 0 6 3 1 5 -13 5 -14 0 -19 -2 -12 -5z"/>
<path d="M6926 3047 c3 -10 9 -15 12 -12 3 3 0 11 -7 18 -10 9 -11 8 -5 -6z"/>
<path d="M6985 3050 c12 -5 14 -9 6 -9 -8 -1 -12 -3 -10 -6 3 -2 16 -1 29 2
22 6 23 7 4 14 -27 11 -54 10 -29 -1z"/>
<path d="M7317 3054 c-2 -3 -29 -6 -58 -6 -30 -1 -46 -3 -36 -5 9 -3 17 -9 17
-14 0 -6 4 -8 10 -4 5 3 25 6 45 7 36 1 53 12 37 22 -5 3 -12 3 -15 0z"/>
<path d="M7050 3036 c0 -2 7 -7 16 -10 8 -3 12 -2 9 4 -6 10 -25 14 -25 6z"/>
<path d="M7327 3020 c-36 -28 -169 -110 -180 -110 -4 0 -5 5 -1 11 4 7 -2 7
-17 -1 -34 -18 -38 -24 -11 -16 48 15 18 -6 -73 -51 -52 -25 -93 -49 -90 -51
11 -11 405 215 405 233 0 9 -6 6 -33 -15z"/>
<path d="M7263 3004 c-48 -28 -59 -43 -15 -20 30 16 70 45 62 46 -3 0 -24 -12
-47 -26z"/>
<path d="M7075 3000 c-19 -8 -19 -9 3 -9 12 -1 22 4 22 9 0 6 -1 10 -2 9 -2 0
-12 -4 -23 -9z"/>
<path d="M7125 3000 c-25 -11 1 -11 35 0 20 6 21 8 5 8 -11 0 -29 -3 -40 -8z"/>
<path d="M7058 2963 c7 -3 16 -2 19 1 4 3 -2 6 -13 5 -11 0 -14 -3 -6 -6z"/>
<path d="M6045 2945 c-25 -12 -26 -14 -5 -9 28 7 60 23 45 23 -5 0 -23 -6 -40
-14z"/>
<path d="M6978 2923 c7 -3 16 -2 19 1 4 3 -2 6 -13 5 -11 0 -14 -3 -6 -6z"/>
<path d="M7050 2880 c-9 -6 -10 -10 -3 -10 6 0 15 5 18 10 8 12 4 12 -15 0z"/>
<path d="M2910 2796 c0 -2 7 -7 16 -10 8 -3 12 -2 9 4 -6 10 -25 14 -25 6z"/>
<path d="M6865 2773 c-64 -27 -86 -40 -45 -28 35 11 127 53 115 53 -5 0 -37
-11 -70 -25z"/>
<path d="M5580 2780 c-8 -5 -10 -10 -5 -10 6 0 17 5 25 10 8 5 11 10 5 10 -5
0 -17 -5 -25 -10z"/>
<path d="M2950 2775 c0 -7 81 -47 86 -43 2 3 -17 14 -41 26 -25 12 -45 20 -45
17z"/>
<path d="M5475 2730 c-3 -6 1 -7 9 -4 18 7 21 14 7 14 -6 0 -13 -4 -16 -10z"/>
<path d="M6755 2730 c-13 -6 -15 -9 -5 -9 8 0 22 4 30 9 18 12 2 12 -25 0z"/>
<path d="M3080 2710 c8 -5 20 -10 25 -10 6 0 3 5 -5 10 -8 5 -19 10 -25 10 -5
0 -3 -5 5 -10z"/>
<path d="M5435 2710 c-3 -6 1 -7 9 -4 18 7 21 14 7 14 -6 0 -13 -4 -16 -10z"/>
<path d="M3130 2690 c8 -5 20 -10 25 -10 6 0 3 5 -5 10 -8 5 -19 10 -25 10 -5
0 -3 -5 5 -10z"/>
<path d="M3180 2670 c8 -5 22 -9 30 -9 10 0 8 3 -5 9 -27 12 -43 12 -25 0z"/>
<path d="M6545 2665 c-39 -14 -40 -14 -5 -8 41 7 82 22 60 22 -8 0 -33 -7 -55
-14z"/>
<path d="M6478 2643 c7 -3 16 -2 19 1 4 3 -2 6 -13 5 -11 0 -14 -3 -6 -6z"/>
<path d="M3298 2633 c7 -3 16 -2 19 1 4 3 -2 6 -13 5 -11 0 -14 -3 -6 -6z"/>
<path d="M6428 2633 c7 -3 16 -2 19 1 4 3 -2 6 -13 5 -11 0 -14 -3 -6 -6z"/>
<path d="M3338 2623 c7 -3 16 -2 19 1 4 3 -2 6 -13 5 -11 0 -14 -3 -6 -6z"/>
<path d="M6388 2623 c7 -3 16 -2 19 1 4 3 -2 6 -13 5 -11 0 -14 -3 -6 -6z"/>
<path d="M3378 2613 c6 -2 18 -2 25 0 6 3 1 5 -13 5 -14 0 -19 -2 -12 -5z"/>
<path d="M6348 2613 c7 -3 16 -2 19 1 4 3 -2 6 -13 5 -11 0 -14 -3 -6 -6z"/>
<path d="M3428 2603 c6 -2 18 -2 25 0 6 3 1 5 -13 5 -14 0 -19 -2 -12 -5z"/>
<path d="M6298 2603 c6 -2 18 -2 25 0 6 3 1 5 -13 5 -14 0 -19 -2 -12 -5z"/>
<path d="M3488 2593 c6 -2 18 -2 25 0 6 3 1 5 -13 5 -14 0 -19 -2 -12 -5z"/>
<path d="M6248 2593 c6 -2 18 -2 25 0 6 3 1 5 -13 5 -14 0 -19 -2 -12 -5z"/>
<path d="M3548 2583 c12 -2 30 -2 40 0 9 3 -1 5 -23 4 -22 0 -30 -2 -17 -4z"/>
<path d="M6198 2583 c6 -2 18 -2 25 0 6 3 1 5 -13 5 -14 0 -19 -2 -12 -5z"/>
<path d="M6158 2573 c7 -3 16 -2 19 1 4 3 -2 6 -13 5 -11 0 -14 -3 -6 -6z"/>
<path d="M6118 2563 c7 -3 16 -2 19 1 4 3 -2 6 -13 5 -11 0 -14 -3 -6 -6z"/>
<path d="M5164 2538 l-19 -23 23 19 c12 11 22 21 22 23 0 8 -8 2 -26 -19z"/>
<path d="M6058 2553 c7 -3 16 -2 19 1 4 3 -2 6 -13 5 -11 0 -14 -3 -6 -6z"/>
<path d="M5998 2543 c6 -2 18 -2 25 0 6 3 1 5 -13 5 -14 0 -19 -2 -12 -5z"/>
<path d="M5958 2533 c7 -3 16 -2 19 1 4 3 -2 6 -13 5 -11 0 -14 -3 -6 -6z"/>
<path d="M5908 2523 c7 -3 16 -2 19 1 4 3 -2 6 -13 5 -11 0 -14 -3 -6 -6z"/>
<path d="M5868 2513 c7 -3 16 -2 19 1 4 3 -2 6 -13 5 -11 0 -14 -3 -6 -6z"/>
<path d="M5070 2453 l-55 -58 58 55 c31 30 57 56 57 57 0 8 -10 -1 -60 -54z"/>
<path d="M5828 2503 c7 -3 16 -2 19 1 4 3 -2 6 -13 5 -11 0 -14 -3 -6 -6z"/>
<path d="M5788 2493 c7 -3 16 -2 19 1 4 3 -2 6 -13 5 -11 0 -14 -3 -6 -6z"/>
<path d="M5718 2473 c7 -3 16 -2 19 1 4 3 -2 6 -13 5 -11 0 -14 -3 -6 -6z"/>
<path d="M5480 2390 c-8 -5 -10 -10 -5 -10 6 0 17 5 25 10 8 5 11 10 5 10 -5
0 -17 -5 -25 -10z"/>
<path d="M5440 2370 c-9 -6 -10 -10 -3 -10 6 0 15 5 18 10 8 12 4 12 -15 0z"/>
<path d="M5374 2334 c-18 -14 -18 -15 4 -4 12 6 22 13 22 15 0 8 -5 6 -26 -11z"/>
<path d="M5324 2304 c-18 -14 -18 -15 4 -4 12 6 22 13 22 15 0 8 -5 6 -26 -11z"/>
<path d="M5269 2263 c-13 -16 -12 -17 4 -4 16 13 21 21 13 21 -2 0 -10 -8 -17
-17z"/>
<path d="M5175 2178 l-70 -73 73 70 c39 38 72 71 72 72 0 8 -11 -2 -75 -69z"/>
<path d="M5031 1963 c-6 -21 -10 -58 -10 -83 2 -42 2 -41 9 15 4 33 10 70 14
83 4 12 5 22 2 22 -3 0 -10 -17 -15 -37z"/>
<path d="M4980 1826 c0 -2 8 -10 18 -17 15 -13 16 -12 3 4 -13 16 -21 21 -21
13z"/>
</g>
</svg>
